<?xml version="1.0" encoding="UTF-8"?>
<svg xmlns="http://www.w3.org/2000/svg" viewBox="0 0 200 200" width="200" height="200">
<path d="M90.03 0.08C96.68 0.08 103.32 0.08 109.97 0.08C112.73 1.71 117.5 1.47 120.73 2.08C126.42 3.16 132.15 5.18 137.53 7.26C156.05 14.42 171.22 28.05 182.81 43.93C188.54 51.78 192.98 61.66 195.78 70.91C196.95 74.77 198.68 87.96 199.92 90.03C199.92 96.67 199.92 103.32 199.92 109.96C198.29 112.71 198.52 117.51 197.91 120.73C196.85 126.41 194.81 132.15 192.74 137.52C185.6 156.02 171.95 171.25 156.07 182.8C148.2 188.53 138.34 192.97 129.09 195.78C125.27 196.93 111.94 198.71 109.95 199.92C103.32 199.92 96.68 199.92 90.05 199.92C88 198.68 74.77 196.95 70.91 195.78C61.66 192.97 51.79 188.54 43.93 182.81C28.06 171.24 14.4 156.03 7.26 137.53C5.19 132.15 3.16 126.41 2.09 120.73C1.47 117.5 1.71 112.74 0.08 109.97C0.08 103.32 0.08 96.67 0.08 90.03C1.83 87.08 1.34 82.25 2.17 78.85C4.43 69.63 7.53 60.29 12.25 51.97C23.42 32.32 41.22 15.47 62.47 7.26C67.85 5.18 73.58 3.16 79.27 2.08C82.5 1.47 87.27 1.71 90.03 0.08ZM54.39 40.57C44.98 48.21 34.58 59.04 31 70.98C25.38 79.13 24.47 98.01 25.73 107.58C30.52 144.04 56.71 170.46 93.5 174.33C101.57 175.18 120.99 174.11 127.61 169.03C131.76 168.04 142.76 162.45 144.56 158.56C147.28 156.06 147.85 149.57 145.05 146.95C144.47 145.14 142.96 143.89 141.36 142.87C135.25 138.94 129.55 143.11 123.5 144.71C121.13 145.33 118 145.33 115.92 146.42C107.42 146.36 99.7 146.46 91.47 143.75C86.92 142.25 83.02 139.12 78.6 137.62C77.73 134.99 78.76 131.95 79.66 129.4C83.46 118.64 89.45 114.72 96.15 106.52C99.85 104.38 103.35 101.7 107.5 100.43C116.68 97.64 127.49 98.56 136.79 100.34C145.63 102.04 161.31 107.88 169.06 101.2C179.41 97.57 180.94 79.3 168.92 76.85C162.14 73.38 152.81 76.97 146.4 79.66C136.75 83.72 127.38 88.58 117.32 91.63C109.46 94.01 101.37 94.91 93.5 96.95C86.71 97.13 74.63 98.78 68.66 95.05C67.61 90.81 69.35 85.62 70.83 81.64C75.48 69.15 87.94 53.93 102.25 53.14C107.63 52.84 112.88 53.69 118.02 55.25C121.11 56.19 124.46 58.5 127.75 58.17C134.77 57.46 140.97 47.18 139.84 40.78C138.39 32.55 125.71 29.54 119.01 27.73C101.74 23.05 83.07 24.8 67.06 32.78C63.02 34.79 57.44 37.26 54.39 40.57Z" fill="#1a247e" fill-rule="evenodd" stroke="#1a247e" stroke-width="0.25" stroke-linejoin="round"/>
<path d="M68.66 95.05C65.87 95.93 57.75 90.26 55.65 88.1C46.83 79.01 45.65 65.74 49.49 54C50.89 49.74 54.22 44.94 54.39 40.57C57.44 37.26 63.02 34.79 67.06 32.78C83.07 24.8 101.74 23.05 119.01 27.73C125.71 29.54 138.39 32.55 139.84 40.78C140.97 47.18 134.77 57.46 127.75 58.17C124.46 58.5 121.11 56.19 118.02 55.25C112.88 53.69 107.63 52.84 102.25 53.14C87.94 53.93 75.48 69.15 70.83 81.64C69.35 85.62 67.61 90.81 68.66 95.05ZM31 70.98C31.1 73.1 30.44 75.14 30.2 77.25C29.57 82.65 29.8 88.55 31.28 93.78C36.42 112.01 59.81 115.22 75.77 111.75C79.61 110.92 83.63 109.41 87.5 109.01C90.14 108.09 92.77 107.17 95.41 106.25C95.66 106.34 95.91 106.43 96.15 106.52C89.45 114.72 83.46 118.64 79.66 129.4C78.76 131.95 77.73 134.99 78.6 137.62C76.91 139.11 78.44 143.34 78.85 145.28C80.96 155.01 87.68 159.66 95.3 164.87C96.86 166.62 100.01 167.25 102.37 167.85C109.75 169.72 119.14 170.39 126.5 168.25C126.87 168.51 127.24 168.77 127.61 169.03C120.99 174.11 101.57 175.18 93.5 174.33C56.71 170.46 30.52 144.04 25.73 107.58C24.47 98.01 25.38 79.13 31 70.98ZM168.92 76.85C180.94 79.3 179.41 97.57 169.06 101.2C168.38 100.55 167.69 99.9 167 99.25C167 94.08 167 88.92 167 83.75C167 81.66 167.52 79.34 166 77.75C166.97 77.45 167.95 77.15 168.92 76.85ZM115.5 97.42C115.58 97.28 115.67 97.14 115.75 97C117.83 96.97 119.92 96.94 122 96.92C124.17 97.03 126.33 97.14 128.5 97.25C124.17 97.31 119.83 97.36 115.5 97.42ZM145.05 146.95C146.23 153.23 145.61 152.76 144.56 158.56C144.04 158.12 143.52 157.69 143 157.25C143.34 156.17 143.96 156.19 144.4 155.23C145.26 153.37 144.61 149.09 143.89 147.25C143.25 147.78 143.27 147.81 142.75 147C141.72 145.88 144.31 146.53 145.05 146.95Z" fill="#45c0bd" fill-rule="evenodd" stroke="#45c0bd" stroke-width="0.25" stroke-linejoin="round"/>
<path d="M54.39 40.57C54.22 44.94 50.89 49.74 49.49 54C45.65 65.74 46.83 79.01 55.65 88.1C57.75 90.26 65.87 95.93 68.66 95.05C74.63 98.78 86.71 97.13 93.5 96.95C94.69 97.87 96.86 97.45 98.51 97.26C101.81 96.88 111.8 95.55 113.75 93.5C115.33 93.42 116.92 93.33 118.5 93.25C118.75 94.33 119 95.42 119.25 96.5C120.64 95.05 119.08 92.69 121.25 92C121.5 93.64 121.75 95.28 122 96.92C119.92 96.94 117.83 96.97 115.75 97C115.67 97.14 115.58 97.28 115.5 97.42C114.45 97.11 113.41 98.19 112.17 98.39C103.83 99.77 101.97 102.77 95 105.47C92.72 106.36 88.93 107.13 87.5 109.01C83.63 109.41 79.61 110.92 75.77 111.75C59.81 115.22 36.42 112.01 31.28 93.78C29.8 88.55 29.57 82.65 30.2 77.25C30.44 75.14 31.1 73.1 31 70.98C34.58 59.04 44.98 48.21 54.39 40.57ZM78.6 137.62C83.02 139.12 86.92 142.25 91.47 143.75C99.7 146.46 107.42 146.36 115.92 146.42C112.47 146.7 109.02 146.97 105.58 147.25C110.97 147.17 116.36 147.08 121.75 147C121.75 153.83 121.75 160.67 121.75 167.5C116.97 167.45 111.26 168.57 106 167.54C102.45 166.84 98.82 165.17 95.3 164.87C87.68 159.66 80.96 155.01 78.85 145.28C78.44 143.34 76.91 139.11 78.6 137.62Z" fill="#aae4d1" fill-rule="evenodd" stroke="#aae4d1" stroke-width="0.25" stroke-linejoin="round"/>
<path d="M168.92 76.85C167.95 77.15 166.97 77.45 166 77.75C167.52 79.34 167 81.66 167 83.75C167 88.92 167 94.08 167 99.25C167.69 99.9 168.38 100.55 169.06 101.2C161.31 107.88 145.63 102.04 136.79 100.34C127.49 98.56 116.68 97.64 107.5 100.43C103.35 101.7 99.85 104.38 96.15 106.52C95.91 106.43 95.66 106.34 95.41 106.25C92.77 107.17 90.14 108.09 87.5 109.01C88.93 107.13 92.72 106.36 95 105.47C101.97 102.77 103.83 99.77 112.17 98.39C113.41 98.19 114.45 97.11 115.5 97.42C119.83 97.36 124.17 97.31 128.5 97.25C126.33 97.14 124.17 97.03 122 96.92C121.75 95.28 121.5 93.64 121.25 92C119.08 92.69 120.64 95.05 119.25 96.5C119 95.42 118.75 94.33 118.5 93.25C116.92 93.33 115.33 93.42 113.75 93.5C111.8 95.55 101.81 96.88 98.51 97.26C96.86 97.45 94.69 97.87 93.5 96.95C101.37 94.91 109.46 94.01 117.32 91.63C127.38 88.58 136.75 83.72 146.4 79.66C152.81 76.97 162.14 73.38 168.92 76.85ZM145.05 146.95C144.31 146.53 141.72 145.88 142.75 147C143.27 147.81 143.25 147.78 143.89 147.25C144.61 149.09 145.26 153.37 144.4 155.23C143.96 156.19 143.34 156.17 143 157.25C143.52 157.69 144.04 158.12 144.56 158.56C142.76 162.45 131.76 168.04 127.61 169.03C127.24 168.77 126.87 168.51 126.5 168.25C119.14 170.39 109.75 169.72 102.37 167.85C100.01 167.25 96.86 166.62 95.3 164.87C98.82 165.17 102.45 166.84 106 167.54C111.26 168.57 116.97 167.45 121.75 167.5C121.75 160.67 121.75 153.83 121.75 147C116.36 147.08 110.97 147.17 105.58 147.25C109.02 146.97 112.47 146.7 115.92 146.42C118 145.33 121.13 145.33 123.5 144.71C129.55 143.11 135.25 138.94 141.36 142.87C142.96 143.89 144.47 145.14 145.05 146.95ZM145.05 146.95C147.85 149.57 147.28 156.06 144.56 158.56C145.61 152.76 146.23 153.23 145.05 146.95Z" fill="#71ccc8" fill-rule="evenodd" stroke="#71ccc8" stroke-width="0.25" stroke-linejoin="round"/>
</svg>