<?xml version="1.0" encoding="UTF-8" standalone="no"?>
<!DOCTYPE svg PUBLIC "-//W3C//DTD SVG 1.1//EN" "http://www.w3.org/Graphics/SVG/1.1/DTD/svg11.dtd">
<svg width="100%" height="100%" viewBox="0 0 913 200" version="1.1" xmlns="http://www.w3.org/2000/svg" xmlns:xlink="http://www.w3.org/1999/xlink" xml:space="preserve" xmlns:serif="http://www.serif.com/" style="fill-rule:evenodd;clip-rule:evenodd;stroke-linejoin:round;stroke-miterlimit:2;">
    <g transform="matrix(8.66785,0,0,8.508901,-63.544011,-155.272159)">
        <path d="M40,41.753L40,18.708L41.25,18.708L41.25,22.333C41.398,22.172 41.534,22.002 41.658,21.822C42.702,19.656 44.904,18.289 47.308,18.316C50.158,18.231 52.474,19.286 53.835,21.822C55.591,25.016 55.692,28.871 54.107,32.153C52.839,34.995 49.707,36.408 46.354,35.889C44.236,35.709 42.349,34.464 41.35,32.587L41.35,41.752L40,41.753ZM41.25,26.86L41.53,29.566C42.024,32.646 43.845,34.466 46.704,34.808C49.462,35.261 52.181,33.689 53.163,31.072C54.275,28.422 54.193,25.422 52.943,22.834C51.898,20.495 49.412,19.121 46.875,19.481C44.498,19.654 42.479,21.323 41.863,23.625C41.597,24.69 41.392,25.77 41.25,26.859L41.25,26.86ZM80.748,29.992C80.358,33.333 77.524,35.895 74.161,35.949C68.919,36.213 66.459,32.732 66.068,28.715C65.796,26.534 66.15,24.32 67.089,22.332C68.426,19.541 71.437,17.927 74.501,18.358C77.413,18.605 79.855,20.701 80.543,23.541C80.809,24.806 81.005,26.084 81.13,27.371L67.363,27.371C67.108,31.013 69.065,33.941 71.839,34.647C75.294,35.497 78.247,34 79.319,30.715C79.557,29.872 79.991,29.753 80.757,29.992L80.748,29.992ZM67.353,26.205L79.667,26.205C79.59,22.325 77.174,19.505 73.897,19.473C70.197,19.413 67.514,22.12 67.353,26.205ZM83.293,30.077L84.5,30.077C84.59,31.887 85.69,33.501 87.342,34.247C89.405,35.175 91.782,35.113 93.793,34.077C94.9,33.579 95.581,32.436 95.495,31.226C95.559,30.056 94.833,28.977 93.725,28.596C92.397,28.102 90.985,27.83 89.632,27.396C88.224,26.995 86.847,26.492 85.513,25.89C83.333,24.826 83.198,20.682 85.666,19.37C88.231,17.923 91.364,17.874 93.972,19.242C95.566,20.122 96.447,21.899 96.185,23.702L95.15,23.702C95.15,23.652 95.056,23.608 95.056,23.557C94.928,20.257 92.154,19.225 89.176,19.515C88.276,19.615 87.423,19.887 86.623,20.289C85.64,20.738 85.044,21.766 85.143,22.842C85.145,23.919 85.829,24.884 86.845,25.242C88.145,25.719 89.525,26.025 90.87,26.399L94.12,27.249C95.629,27.744 96.682,29.127 96.758,30.713C97.018,32.458 96.128,34.173 94.554,34.968C91.712,36.576 87.031,36.151 84.946,34.118C83.879,33.045 83.284,31.588 83.296,30.076L83.293,30.077ZM112.073,23.703L110.941,23.703C110.941,23.55 110.881,23.403 110.864,23.286C110.827,21.544 109.564,20.052 107.851,19.729C106.278,19.278 104.599,19.359 103.077,19.959C101.844,20.312 100.985,21.443 100.975,22.725C100.931,23.988 101.789,25.118 103.017,25.414L108.191,26.742C108.751,26.876 109.302,27.044 109.841,27.244C111.491,27.844 112.611,29.376 112.661,31.127C112.712,32.877 111.675,34.488 110.061,35.167C107.634,36.269 104.851,36.297 102.402,35.244C100.366,34.366 99.085,32.301 99.202,30.087L100.308,30.087C100.724,32.092 102.101,33.762 103.99,34.552C105.879,35.342 108.036,35.148 109.754,34.036C110.805,33.49 111.444,32.377 111.388,31.194C111.441,30.023 110.704,28.952 109.592,28.581C108.264,28.087 106.852,27.824 105.499,27.381C104.083,26.986 102.698,26.489 101.355,25.892C99.227,24.845 99.057,20.735 101.483,19.424C104.082,17.914 107.293,17.879 109.925,19.33C111.436,20.232 112.276,21.949 112.061,23.696L112.073,23.703ZM37.943,35.533C37.025,35.88 35.981,35.483 35.526,34.614L31.126,28.529L30.488,27.679L25.382,34.623C24.954,35.454 23.964,35.843 23.084,35.525L29.662,26.7L23.542,18.726C24.45,18.398 25.462,18.754 25.967,19.576L30.527,25.736L35.114,19.6C35.546,18.782 36.533,18.414 37.395,18.749L35.02,21.9L31.803,26.087C31.623,26.248 31.519,26.479 31.519,26.721C31.519,26.963 31.623,27.194 31.803,27.355L37.93,35.533L37.943,35.533ZM65.873,18.641L65.873,19.841C65.739,19.832 65.604,19.828 65.469,19.828C62.084,19.828 59.299,22.613 59.299,25.998C59.299,26.07 59.3,26.143 59.303,26.215L59.303,35.576L58.086,35.576L58.086,18.716L59.286,18.716L59.286,22.171C60.758,19.651 63.03,18.716 65.881,18.648L65.873,18.641ZM7.333,26.59L7.869,23.943C9.341,18.709 15.341,16.531 19.469,19.773C21.886,21.671 22.489,24.36 22.371,27.39L8.754,27.39C8.534,32.802 12.439,36.07 17.434,34.402C19.08,33.802 20.319,32.434 20.727,30.734C20.991,29.884 21.427,29.738 22.225,29.984C21.956,32.082 20.737,33.944 18.923,35.031C15.894,36.687 12.119,36.205 9.604,33.84C8.388,32.473 7.654,30.745 7.511,28.92C7.511,28.62 7.411,28.34 7.341,28.07C7.334,27.565 7.331,27.072 7.331,26.59L7.333,26.59ZM8.771,26.224L21.085,26.224C21.008,22.301 18.532,19.518 15.23,19.492C11.554,19.442 8.924,22.164 8.762,26.207L8.771,26.224Z" style="fill:white;fill-rule:nonzero;"/>
    </g>
</svg>
