<svg xmlns="http://www.w3.org/2000/svg" fill="none" viewBox="0 0 600 600"><path fill="#222" d="M3.9 348.6v-66.8h83.4V278H3.9v-61h88.6v-3.9H0v139.4h93.3v-3.9zm164.6-96.4-34.6 45.5-33.7-45.5H95l36.5 48.4-40 52h4.7l37.6-49 38 49h4.8l-40.2-52 36.7-48.4zm20 134.7v-62.5h.3a40 40 0 0 0 13.9 22 41 41 0 0 0 26.3 8.3 39 39 0 0 0 31.8-15.6 53 53 0 0 0 8.2-16.8q2.8-9.6 2.8-20.2 0-11.3-3-20.8a50 50 0 0 0-8.4-16.6 39 39 0 0 0-31.4-14.9q-7.6 0-14.1 2.3a38 38 0 0 0-11.6 6.3 43 43 0 0 0-14.5 21.9h-.4v-28.1h-3.9v134.7zm40.5-36q-18.3 0-29.5-12.5-11-12.6-11-36.3a62 62 0 0 1 2.6-18.5 48 48 0 0 1 8-15.4 37 37 0 0 1 30-14.4q9.6 0 17 3.8 7.4 4 12.1 10.7 4.8 6.7 7.2 15.4a68 68 0 0 1 .2 36 50 50 0 0 1-6.9 15.5A34 34 0 0 1 229 351m64.3 1.6v-56.8q0-8.2 2.3-16 2.4-7.8 7.2-13.8 5-6 12.4-9.3 7.5-3.5 17.9-2.9v-3.9q-9-.2-15.7 2a38 38 0 0 0-11.6 5.8 30 30 0 0 0-7.9 8.7q-2.8 5-4.2 10.7h-.4v-24.8h-4v100.3zm44.7-49.4h84q.3-10.3-2.1-19.9t-7.8-17a40 40 0 0 0-34.1-16.4 40 40 0 0 0-30.5 13.8 52 52 0 0 0-9.7 16.5q-3.7 9.8-3.7 22.2 0 11.2 2.5 20.8 2.6 9.7 7.8 16.8t13.6 11a45 45 0 0 0 20 3.8q17.2 0 28.9-9.7a40 40 0 0 0 13.9-27.2h-4q-2.4 16.5-13 24.9-10.3 8.3-26.2 8.3-10.7 0-18.1-3.7T347.3 337a44 44 0 0 1-6.9-15.1q-2.2-8.7-2.4-18.9m80-3.9h-80q.6-10.5 3.9-19a47 47 0 0 1 8.7-14.3 36 36 0 0 1 27.8-12.2q9.7 0 17.2 3.6t12.4 9.9 7.5 14.5a59 59 0 0 1 2.5 17.5m85-17.4h3.9q0-16.8-9.8-24.4t-26.6-7.6q-9.3 0-15.8 2.4a32 32 0 0 0-10.5 6 22 22 0 0 0-5.9 8.2q-1.7 4.5-1.7 8.6 0 8.2 2.9 13 3 5 9.2 7.7 4.3 2 9.7 3.5 5.6 1.6 12.7 3.3l12.7 3.2q6.3 1.5 11 4.2 4.8 2.6 7.9 6.7 3 4 3 10.7 0 6.5-3 11t-7.7 7.3a34 34 0 0 1-10.5 4q-5.7 1.4-11.2 1.4-17.8 0-27.3-8-9.4-7.8-9.4-24.8h-4q0 18.9 10.3 27.7t30.4 8.8q6.4 0 13-1.5a36 36 0 0 0 11.7-4.8q5.1-3.2 8.4-8.6 3.2-5.2 3.2-12.9 0-7.2-2.8-11.7-3-4.4-7.5-7.4t-10.3-4.6a598 598 0 0 0-26-7q-6-1.5-11.4-3.6-5-2.2-8-6.2-3.1-3.9-3.1-11.4 0-1.3.8-4.9.7-3.5 3.7-7.1t9-6.4q6-3 16.6-2.9 7.2 0 13.1 1.6 6 1.5 10.3 5 4.2 3.3 6.6 8.7t2.4 12.8m90.4 0h3.9q0-16.8-9.8-24.4a42 42 0 0 0-26.5-7.6q-9.5 0-15.9 2.4a32 32 0 0 0-10.5 6 22 22 0 0 0-5.9 8.2Q527 271 527 275q0 8.2 3 13 3 5 9 7.7 4.5 2 9.8 3.5 5.6 1.6 12.7 3.3l12.7 3.2q6.3 1.5 11 4.2 4.8 2.6 7.9 6.7 3 4 3 10.7 0 6.5-3 11t-7.7 7.3a34 34 0 0 1-10.5 4q-5.7 1.4-11.2 1.4-17.9 0-27.3-8-9.4-7.8-9.4-24.8h-4q0 18.9 10.3 27.7t30.4 8.8q6.4 0 13-1.5t11.7-4.8q5.1-3.2 8.4-8.6 3.2-5.2 3.2-12.9 0-7.2-2.8-11.7-3-4.4-7.5-7.4t-10.3-4.6a598 598 0 0 0-26-7q-6-1.5-11.4-3.6-5-2.2-8-6.2-3.1-3.9-3.1-11.4 0-1.3.8-4.9.7-3.5 3.7-7.1t9-6.4q6-3 16.6-2.9 7.2 0 13.1 1.6 6 1.5 10.3 5 4.2 3.3 6.6 8.7t2.4 12.8"/></svg>