<?xml version="1.0" encoding="UTF-8" standalone="no"?>
<!DOCTYPE svg PUBLIC "-//W3C//DTD SVG 1.1//EN" "http://www.w3.org/Graphics/SVG/1.1/DTD/svg11.dtd">
<svg width="100%" height="100%" viewBox="0 0 513 200" version="1.1" xmlns="http://www.w3.org/2000/svg" xmlns:xlink="http://www.w3.org/1999/xlink" xml:space="preserve" xmlns:serif="http://www.serif.com/" style="fill-rule:evenodd;clip-rule:evenodd;stroke-linejoin:round;stroke-miterlimit:2;">
    <g id="Layer-1" serif:id="Layer 1" transform="matrix(1.17491,0,0,1.172827,-46.785856,-35.403982)">
        <path id="path2900" d="M96.945,182.034C89.663,176.306 81.895,170.814 76.586,163.082C65.417,149.445 56.817,133.657 50.938,117.065C47.384,106.277 46.167,94.71 41.586,84.338C36.794,76.805 42.407,68.57 50.659,66.176C54.332,65.471 60.792,62.005 52.994,64.482C46.004,69.611 45.327,59.827 52.496,59.207C57.388,58.557 59.189,54.552 57.516,50.947C52.264,47.522 70.249,43.759 61.2,38.649C51.773,28.478 74.386,26.52 68.807,38.071C67.472,46.953 84.608,36.443 80.632,46.7C84.674,51.626 95.766,47.821 95.491,54.731C101.378,55.136 103.398,60.09 108.925,60.47C114.652,63.056 125.036,65.095 126.985,71.549C121.302,76.048 108.144,62.256 107.512,74.709C109.228,93.105 108.791,112.056 115.521,129.574C118.705,140.182 126.423,148.532 133.392,156.794C140.061,164.885 149.094,170.581 158.301,175.377C166.378,179.186 175.085,181.712 183.887,183.298C187.457,180.567 193.76,170.415 199.33,174.696C199.594,179.506 188.275,184.751 198.797,184.219C204.975,182.355 209.26,188.997 214.348,183.006C219.035,188.558 233.83,179.459 230.495,190.808C225.985,193.717 219.408,191.959 214.891,195.961C207.443,192.242 201.514,199.29 193.269,198.399C184.113,200.039 174.797,200.701 165.514,200.715C150.285,199.512 134.733,199.004 120.245,193.702C112.083,191.33 104.118,186.683 96.945,182.034ZM109.807,187.607C117.777,191.053 125.569,194.686 134.304,195.781C148.16,197.709 162.47,200.673 176.377,197.969C170.083,195.127 163.576,199.076 157.306,195.937C149.785,197.555 141.715,195.524 134.07,194.525C125.376,190.652 115.994,187.989 107.852,182.963C97.679,179.247 113.114,187.728 115.861,188.415C122.22,192.024 108.867,186.564 106.985,185.064C101.658,182.076 100.98,182.7 106.457,185.735C107.561,186.38 108.651,187.057 109.807,187.607ZM94.642,176.89C102.365,179.75 94.608,171.459 91.069,171.941C89.501,169.221 85.079,167.502 88.199,166.041C82.587,167.989 82.32,158.633 79.683,159.97C73.746,158.095 77.372,151.455 70.301,147.377C69.655,143.08 63.275,139.353 61.24,132.871C60.341,129.553 54.032,120.024 57.907,128.892C61.208,137.43 67.014,144.741 71.846,152.044C75.598,158.997 80.029,166.264 86.862,170.602C89.165,172.811 91.389,176.197 94.642,176.89ZM72.395,152.464C72.664,151.297 73.807,154.988 72.395,152.464ZM103.891,180.319C105.601,179.553 101.432,179.354 103.891,180.319ZM108.083,181.848C107.649,179.736 106.169,183.029 108.083,181.848ZM113.331,184.037C115.829,181.658 109.481,182.537 113.331,184.037ZM122.325,189.05C123.843,186.806 117.466,188.203 122.325,189.05ZM105.054,177.01C108.934,174.5 100.042,176.976 105.054,177.01ZM108.991,178.973C108.88,177.646 107.588,179.568 108.991,178.973ZM128.665,191.253C131.828,193.249 147.135,195.628 137.55,192.072C135.946,192.41 119.777,187.498 128.665,191.253ZM97.431,166.927C97.123,165.596 92.522,165.458 97.431,166.927ZM106.59,172.265C108.974,170.603 101.643,170.983 106.59,172.265ZM114.295,176.989C117.715,175.7 108.745,175.693 114.295,176.989ZM93.704,162.868C97.415,165.714 108.672,163.233 99.388,161.169C95.162,158.917 85.639,157.375 92.13,162.527L93.704,162.868L93.704,162.868ZM119.513,178.62C121.059,175.986 113.03,177.116 119.513,178.62ZM111.67,172.387C120.745,174.955 104.039,166.648 109.431,171.443L110.626,171.984L111.67,172.387L111.67,172.387ZM127.394,181.475C135.988,181.557 119.631,180.29 127.394,181.475L127.394,181.475ZM90.397,157.895C90.061,156.295 88.276,158.03 90.397,157.895ZM141.932,189.63C142.162,186.739 139.128,191.782 141.932,189.63ZM105.064,166.877C104.544,165.355 102.379,166.815 105.064,166.877ZM91.212,156.891C96.146,156.595 84.457,154.717 91.212,156.891ZM74.802,146.284C74.188,143.919 69.433,142.032 74.802,146.284ZM117.882,173.623C116.978,172.593 117.457,173.849 117.882,173.623ZM144.696,190.078C144.61,188.503 143.235,190.674 144.696,190.078ZM115.509,171.173C115.991,169.143 111.301,170.558 115.509,171.173ZM95.533,158.513C99.203,158.12 89.652,156.031 95.533,158.513ZM129.324,179.51C135.044,177.244 123.749,178.404 129.324,179.51ZM111.747,167.579C118.34,168.429 103.903,163.094 110.301,167.101L111.747,167.579L111.747,167.579ZM134.66,181.667C140.815,177.987 138.786,190.284 145.103,182.706C151.334,178.157 139.722,188.33 147.401,183.517C152.955,179.803 161.157,185.278 166.34,187.064C170.066,186.881 173.689,190.287 177.509,188.215C184.863,186.234 163.128,185.277 168.826,181.763C162.097,183.721 157.125,179.428 153.814,175.118C146.266,173.375 137.538,169.516 133.771,162.836C132.235,160.328 135.99,163.189 132.445,159.089C127.897,155.044 125.626,150.452 122.572,145.534C118.925,143.588 118.5,137.861 118.131,145.342C118.16,140.62 113.727,137.442 112.645,138.764C112.626,134.216 117.389,136.496 114.055,133.131C113.337,128.418 110.974,123.507 110.264,118.186C109.16,115.621 110.108,110.127 106.497,115.934C105.181,122.071 106.06,108.393 108.106,112.903C110.792,108.301 107.142,108.842 106.993,109.481C108.742,105.598 108.1,100.089 106.536,102.191C107.468,98.075 108.009,87.043 105.141,88.998C106.879,84.694 108.438,69.304 100.892,75.172C97.833,75.215 92.537,76.282 90.034,77.527C97.883,81.854 89.244,79.09 86.049,78.402C85.632,82.406 82.468,80.674 78.514,80.713C84.829,81.495 75.438,87.172 71.815,84.967C67.11,87.216 75.876,92.829 71.91,94.564C72.397,97.181 64.702,93.619 65.306,99.662C60.738,97.741 64.677,106.83 66.962,103.756C74.731,105.859 72.431,110.652 72.629,115.206C71.363,117.859 66.38,108.969 71.519,109.381C67.465,102.794 67.034,107 63.665,110.06C62.881,110.282 72.259,114.414 66.374,116.456C71.552,117.255 71.699,121.787 72.753,124.654C75.865,127.895 75.228,121.074 78.952,124.97C76.596,121.5 66.47,115.192 74.623,117.215C74.579,113.722 73.148,110.905 75.646,110.974C78.119,106.494 73.055,122.018 78.631,116.325C80.174,115.651 80.556,111.84 83.33,116.685C87.359,120.648 84.785,123.52 79.102,119.891C80.119,123.341 86.705,124.573 85.467,129.968C86.779,134.712 88.615,132.965 90.215,132.69C91.47,137.3 92.183,133.91 92.243,131.717C97.99,132.947 96.644,136.344 98.442,138.718C102.403,140.506 92.774,126.601 99.573,134.537C106.727,140.996 102.256,143.692 95.836,142.657C99.899,142.329 101.209,148.15 106.292,147.945C110.926,150.15 114.064,158.618 106.076,155.093C103.305,152.595 93.5,149.513 101.508,154.265C108.905,157.69 114.779,159.739 121.913,164.039C127.019,167.684 129.224,171.858 131.159,172.684C126.868,174.734 118.228,171.048 124.644,169.918C120.642,169.189 116.142,167.166 119.975,172.151C123.234,174.873 131.522,174.584 133.007,174.893C131.748,177.668 129.587,177.888 133.059,178.104C129.185,180.168 134.301,180.488 134.66,181.667L134.66,181.667ZM126.739,159.297C124.382,156.832 123.772,152.216 126.32,156.233C127.627,156.758 130.505,163.777 126.739,159.297L126.739,159.297ZM152.536,175.684C154.006,175.589 152.579,176.801 152.536,175.684ZM123.017,153.254C122.927,149.527 123.87,156.128 123.017,153.254ZM120.453,149.804C117.489,144.076 124.191,151.426 120.453,149.804ZM89.383,128.359C91.124,127.895 90.239,131.338 89.383,128.359ZM114.111,141.763C115.181,137.746 115.368,145.133 114.111,141.763ZM96.641,129.615C95.41,127.399 99.217,131.694 96.641,129.615ZM111.634,134.421C108.825,128.129 113.622,130.984 112.255,135.453L111.634,134.421ZM85.779,117.179C84.523,115.114 82.446,109.057 83.115,107.208C83.72,110.22 89.519,120.168 85.959,111.329C82.026,103.92 90.661,113.734 91.549,115.582C91.963,117.42 89.123,115.08 91.047,119.39C87.537,114.483 88.975,122.101 85.779,117.179ZM77.788,111.673C78.117,106.873 79.617,114.964 77.788,111.673ZM81.382,112.91C83.098,109.287 84.291,117.96 81.382,112.91ZM72.736,106.221C69.761,103.265 67.608,100.54 72.875,104.387C74.905,104.466 68.366,98.19 73.364,102.394C78.619,103.352 75.959,111.01 72.736,106.221ZM77.278,106.103C79.006,104.391 78.195,107.788 77.278,106.103ZM80.072,106.999C77.453,102.089 83.251,109.057 80.072,106.999ZM74.517,101.689C65.869,93.993 85.384,105.714 75.93,103.116L74.517,101.689L74.517,101.689ZM99.296,116.087C95.554,113.843 98.304,100.289 99.581,109.559C103.219,108.382 99.38,114.346 102.093,114.291C101.666,118.054 100.452,119.407 99.296,116.087ZM108.461,121.503C108.828,117.419 109.234,124.296 108.461,121.503ZM106.869,119.93C107.281,118.186 106.912,121.985 106.869,119.93ZM76.214,99.16C70.658,91.495 92.361,106.914 79.772,101.105C78.457,100.761 76.874,100.638 76.214,99.16ZM93.863,108.518C93.337,102.063 95.037,109.588 93.862,108.518L93.863,108.518ZM107.262,117.114C108.299,113.437 107.34,119.546 107.262,117.114ZM77.065,96.235C80.367,95.528 90.749,102.034 81.215,98.093C80.156,96.92 77.897,97.453 77.065,96.235ZM105.421,110.368C105.774,103.768 107.393,106.426 105.434,111.313L105.422,110.368L105.421,110.368L105.421,110.368ZM79.523,93.938C80.868,91.964 75.951,85.015 80.232,91.445C82.081,92.915 85.587,93.907 82.492,94.526C87.359,98.82 81.304,95.689 79.523,93.938ZM104.019,108.306C104.948,100.788 104.839,112.711 104.019,108.306ZM76.713,86.994C77.74,86.555 77.256,88.363 76.713,86.994ZM83.102,90.797C84.747,87.346 86.136,94.645 83.102,90.797ZM101.126,100.823C101.109,99.498 101.466,102.751 101.126,100.823ZM100.082,98.512C97.58,92.34 102.409,101.779 100.082,98.512ZM98.546,94.466C98.126,91.915 99.973,97.669 98.546,94.465L98.546,94.466ZM101.046,90.402C99.329,87.377 103.213,77.071 103.647,83.463C101.835,88.443 103.124,91.229 104.388,84.549C106.722,79.292 103.884,94.923 101.046,90.402L101.046,90.402ZM103.615,75.075C104.363,74.156 103.781,76.182 103.615,75.075ZM99.325,159.61C98.307,158.722 99.452,160.175 99.325,159.61ZM108.162,164.08C113.078,165.342 113.053,163.315 108.61,162.713C106.22,160.49 98.68,158.132 105.429,162.438C105.876,163.57 107.288,163.543 108.162,164.08ZM90.708,152.487C93.416,154.507 100.909,158.211 94.566,153.256C96.705,150.771 90.473,149.449 92.54,147.787C87.282,144.569 88.392,144.855 92.076,144.957C85.757,142.132 92.988,142.343 92.648,140.896C90.211,140.415 80.545,136.599 86.231,141.209C80.45,138.262 84.854,142.307 83.106,141.88C77.195,140.268 88.371,146.382 82.168,144.864C85.559,147.552 91.296,151.748 83.601,147.708C82.588,149.167 89.108,151.379 90.708,152.487ZM99.951,157.797C111.19,161.419 94.441,153.373 99.951,157.797ZM147.268,186.462C147.413,184.232 145.732,188.364 147.268,186.462ZM152.131,188.508C154.724,185.996 152.237,192.511 156.427,187.893C156.473,184.588 156.298,182.636 151.612,186.651C150.32,187.367 149.743,190.414 152.131,188.508ZM74.932,140.026C74.136,136.896 69.35,136.912 74.932,140.026ZM80.125,143.429C78.197,140.232 73.245,140.535 80.125,143.429ZM109.669,161.246C112.553,163.808 122.916,163.126 113.172,161.562C111.729,159.428 104.008,159.941 109.669,161.246ZM150.281,186.328C154.72,182.603 145.98,187.99 150.281,186.328ZM159.514,192.673C159.542,191.477 157.6,193.196 159.514,192.673ZM159.528,190.999C164.444,185.79 154.765,191.307 159.528,190.999L159.528,190.999ZM62.16,129.333C57.97,123.355 59.555,120.668 55.515,115.787C54.75,112.054 48.583,103.583 52.325,112.557C55.753,117.806 56.771,125.931 62.16,129.333ZM157.986,189.343C167.03,183.497 154.274,186.797 157.986,189.343ZM164.89,192.048C169.419,188.159 162.025,191.234 164.89,192.048ZM73.393,133.418C74.689,131.49 70.045,133.172 73.393,133.418ZM163.449,190.201C167.834,187.374 162.438,187.808 162.654,190.461L163.449,190.201L163.449,190.201ZM103.935,152.689C103.784,150.78 101.619,152.851 103.935,152.689ZM107.613,154.806C106.444,152.442 105.816,155.177 107.613,154.806ZM170.485,192.112C176.103,188.059 167.08,191.336 169.306,192.88L170.485,192.112ZM168.334,191.072C172.911,187.237 163.502,192.772 168.334,191.072ZM179.326,198.392C182.398,196.334 175.592,197.726 179.326,198.392ZM76.211,132.028C80.33,132.951 92.672,142.172 85.391,132.666C81.662,131.562 83.898,122.446 80.095,124.06C82.647,128.325 82.195,130.14 76.835,127.451C70.098,124.163 73.049,129.081 74.366,130.436C72.571,130.844 76.739,131.994 76.211,132.028ZM57.445,117.208C58.183,114.158 50.656,100.429 53.891,110.328C55.059,112.402 54.94,116.332 57.445,117.208ZM91.889,138.443C89.768,136.669 91.788,138.192 91.889,138.443ZM97.112,139.658C97.109,136.427 91.339,138.346 97.112,139.658ZM142.373,168.191C141.51,165.984 138.961,168.14 142.373,168.191L142.373,168.191ZM144.547,169.779C144.226,168.544 143.293,170.018 144.547,169.779ZM162.487,181.079C164.212,179.804 160.334,180.916 162.487,181.079ZM66.819,119.601C71.754,117.69 61.531,118.238 66.819,119.601ZM138.389,164.69C138.334,161.495 135.243,165.483 138.389,164.69ZM64.869,115.057C68.039,113.986 61.936,114.351 64.869,115.057ZM74.071,119.514C74.013,118.464 73.097,119.911 74.071,119.514ZM186.302,188.336C190.379,187.509 199.668,190.411 201.17,187.255C196.219,187.135 184.042,183.762 183.466,188.06L184.55,188.23L186.302,188.336L186.302,188.336ZM76.995,120.251C77.066,117.013 74.47,120.13 76.995,120.251ZM52.802,103.469C51.703,97.3 48.623,102.535 52.802,103.469ZM58.571,104.919C58.642,102.938 53.291,103.137 58.571,104.919ZM61.868,106.538C60.915,105.766 61.122,107.513 61.868,106.538ZM82.613,119.846C83.589,118.949 80.301,119.181 82.613,119.846ZM59.672,102.886C59.115,98.227 52.99,102.188 59.672,102.886ZM47.844,95.212C47.676,93.061 46.692,96.023 47.844,95.212ZM49.604,93.883C49.317,91.333 48.093,94.207 49.604,93.883ZM59.325,99.685C63.435,98.071 51.837,96.346 58.485,99.38L59.325,99.685ZM189.422,180.045C192.053,177.632 186.078,179.299 189.422,180.045ZM205.139,188.191C206.193,185.073 202.484,188.602 205.139,188.191ZM60.318,94.59C60.751,91.574 57.059,95.189 60.318,94.59ZM46.488,85.324C45.745,81.065 45.846,73.589 52.953,76.116C43.467,77.999 59.518,87.906 57.491,80.084C61.48,80.279 65.294,77.727 63.201,81.6C71.059,80.732 76.508,73.918 84.099,74.873C90.012,74.09 96.477,73.497 102.849,71.117C108.088,70.739 113.131,65.099 110.26,61.755C103.115,61.151 95.636,62.045 87.74,63.614C78.989,65.433 71.041,68.89 62.212,70.373C53.606,71.529 63.943,73.558 61.477,74.01C56.987,75.568 66.833,76.619 60.895,78.262C57.228,77.564 53.411,76.305 54.978,72.44C46.734,73.51 39.49,76.931 46.003,85.32L46.488,85.324L46.488,85.324L46.488,85.324ZM66.352,75.207C68.285,68.087 76.707,81.067 69.52,76.153C68.662,75.511 67.25,74.987 66.352,75.207ZM66.728,71.755C69.518,69.677 68.211,72.92 66.728,71.755ZM70.27,71.811C70.522,68.535 78.379,73.546 71.566,72.991L70.27,71.811ZM75.116,69.863C76.885,67.796 75.624,71.702 75.116,69.863ZM76.355,69.033C79.302,65.493 93.041,66.774 82.984,68.688C80.289,66.659 78.222,69.885 76.355,69.033ZM94.285,66.269C93.837,56.599 103.193,69.706 94.285,66.269ZM99.373,66.241C101.233,61.368 106.591,64.286 100.234,65.262C100.372,65.781 100.047,67.778 99.373,66.241ZM58.312,92.089C63.869,88.686 52.412,89.136 58.312,92.089ZM62.421,93.231C64.37,91.159 58.187,92.39 62.421,93.231ZM50.313,84.638C53.489,82.198 46.556,83.71 50.313,84.638ZM214.416,187.3C214.508,184.47 211.989,188.575 214.416,187.3ZM197.741,175.921C198.215,172.662 195.598,176.205 197.741,175.921ZM219.001,188.397C223.441,188.412 232.454,187.019 222.793,187.023C221.277,187.259 213.96,187.209 219.001,188.397L219.001,188.397ZM66.036,91.233C69.629,90.987 71.657,87.27 65.341,87.483C55.551,86.47 73.978,90.836 64.085,89.587C62.755,90.468 65.958,91.477 66.036,91.233ZM69.2,92.835C68.825,90.528 68.089,94.061 69.2,92.835ZM72.954,82.825C74.513,80.891 70.796,82.308 72.954,82.825ZM61.004,62.85C67.417,60.668 76.186,58.217 79.214,63.924C76.133,60.215 77.971,56.564 80.881,61.987C84.997,67.473 87.057,59.491 84.38,57.651C87.431,61.441 90.9,63.232 86.423,57.891C91.289,52.038 76.68,58.657 73.36,58.59C71.762,59.307 56.866,62.389 61.004,62.85ZM64.762,55.652C68.42,52.892 77.411,57.294 71.641,52.909C71.077,52.41 59.005,56.234 64.762,55.652ZM78.096,56.203C82.376,56.312 76.249,50.452 81.35,53.107C80.512,50.371 75.412,49.859 72.918,48.765C71.507,51.267 75.789,56.236 78.096,56.203ZM67.1,44.099C68.581,42.092 64.505,45.117 67.1,44.099ZM72.55,45.404C79.448,44.489 70.792,42.433 71.16,45.33L72.55,45.404L72.55,45.404L72.55,45.404ZM62.374,37.441C57.518,31.101 71.508,38.507 66.574,31.869C62.421,28.562 58.429,35.591 62.374,37.441ZM124.705,71.014C126.932,67.065 115.508,65.691 123.204,69.615C123.912,69.851 123.752,71.287 124.705,71.014Z" style="fill-rule:nonzero;"/>
        <g id="text3850">
            <path id="path2830" d="M229.852,43.778C229.055,46.919 228.563,52.192 228.375,59.598C228.375,61.052 227.719,61.778 226.407,61.778C225.094,61.778 224.18,61.145 223.664,59.88C222.258,56.458 220.922,54.067 219.657,52.708C218.156,51.114 216.164,50.153 213.68,49.825C211.008,49.403 204.352,49.192 193.711,49.192C191.274,49.192 189.68,49.45 188.93,49.966C188.461,50.294 188.227,50.997 188.227,52.075L188.227,83.926C188.227,85.005 188.906,85.52 190.266,85.473C194.438,85.427 200.485,85.145 208.407,84.63C209.953,84.442 210.996,83.938 211.535,83.118C212.074,82.298 212.602,80.177 213.117,76.755C213.446,74.88 214.547,74.153 216.422,74.575C218.016,74.903 218.696,75.63 218.461,76.755C217.149,83.13 216.727,91.427 217.196,101.645C217.242,102.864 216.469,103.52 214.875,103.614C213.563,103.755 212.742,103.051 212.414,101.505C211.196,95.645 208.934,92.516 205.629,92.118C202.324,91.719 196.946,91.52 189.492,91.52C188.649,91.52 188.227,91.825 188.227,92.434L188.227,124.075C188.227,126.419 189.094,128.012 190.828,128.856C192.188,129.559 195.117,130.192 199.617,130.755C201.914,130.989 202.922,131.997 202.641,133.778C202.36,135.325 200.297,135.934 196.453,135.606C185.344,134.716 176.18,134.762 168.961,135.747C166.946,136.028 165.938,135.208 165.938,133.286C165.938,132.067 166.946,131.364 168.961,131.176C173.555,130.661 175.852,126.63 175.852,119.083L175.852,58.895C175.852,55.802 175.301,53.423 174.199,51.758C173.098,50.095 171.047,48.583 168.047,47.223C166.172,46.38 165.469,45.231 165.938,43.778C166.172,42.887 166.547,42.395 167.063,42.301C167.532,42.161 168.774,42.255 170.789,42.583C173.742,43.052 180.703,43.286 191.672,43.286C204.61,43.286 215.789,43.005 225.211,42.442C228.352,42.255 229.922,42.513 229.922,43.216C229.922,43.403 229.899,43.591 229.852,43.778L229.852,43.778Z" style="fill-rule:nonzero;"/>
            <path id="path2832" d="M275.555,133.145C275.555,135.02 274.5,135.841 272.391,135.606C265.922,134.997 257.906,135.091 248.344,135.887C246.422,136.075 245.239,136.028 244.793,135.747C244.348,135.466 244.125,134.692 244.125,133.426C244.125,132.301 245.403,131.352 247.957,130.579C250.512,129.805 251.789,127.497 251.789,123.653L251.789,60.02C251.789,56.223 251.239,53.434 250.137,51.653C249.035,49.872 247.102,48.489 244.336,47.505C242.883,46.989 242.157,46.262 242.157,45.325C242.157,43.919 243.211,42.864 245.321,42.161C248.508,41.13 251.813,39.536 255.235,37.38C258.047,35.692 259.828,34.848 260.578,34.848C262.313,34.848 263.18,36.044 263.18,38.434C263.18,38.247 263.086,40.591 262.899,45.466C262.758,50.106 262.711,54.677 262.758,59.176L263.039,121.966C263.039,124.825 263.742,126.899 265.149,128.188C266.555,129.477 268.969,130.333 272.391,130.755C274.5,130.989 275.555,131.786 275.555,133.145Z" style="fill-rule:nonzero;"/>
            <path id="path2834" d="M339.68,128.434C339.68,129.419 337.887,130.907 334.301,132.899C330.715,134.891 327.844,135.887 325.688,135.887C323.86,135.887 322.242,134.997 320.836,133.216C319.43,131.434 318.446,130.544 317.883,130.544C317.461,130.544 315.235,131.505 311.203,133.426C307.172,135.348 303.117,136.309 299.039,136.309C295.196,136.309 291.985,135.184 289.407,132.934C286.594,130.45 285.188,127.075 285.188,122.809C285.188,114.7 294.469,108.887 313.032,105.372C316.219,104.762 317.836,103.473 317.883,101.505L318.024,97.005C318.305,89.317 314.906,85.473 307.828,85.473C305.813,85.473 303.903,87.278 302.098,90.887C300.293,94.497 297.703,96.442 294.328,96.723C290.485,97.098 288.563,95.481 288.563,91.872C288.563,89.622 291.422,86.997 297.141,83.997C303.141,80.856 308.906,79.286 314.438,79.286C323.953,79.286 328.664,83.809 328.571,92.856L328.289,121.825C328.242,124.872 329.531,126.395 332.157,126.395C332.672,126.395 333.656,126.278 335.11,126.044C336.563,125.809 337.406,125.692 337.641,125.692C339,125.692 339.68,126.606 339.68,128.434ZM318.024,112.403C318.071,111.231 317.801,110.458 317.215,110.083C316.629,109.708 315.703,109.637 314.438,109.872C303.141,111.887 297.492,115.567 297.492,120.911C297.492,126.301 300.422,128.997 306.282,128.997C308.625,128.997 311.039,128.551 313.524,127.661C316.43,126.63 317.883,125.387 317.883,123.934L318.024,112.403Z" style="fill-rule:nonzero;"/>
            <path id="path2836" d="M392.133,120.067C392.133,125.036 390.223,128.985 386.403,131.915C382.582,134.844 377.367,136.309 370.758,136.309C366.352,136.309 361.946,135.841 357.539,134.903C353.742,134.059 351.539,133.286 350.93,132.583C350.555,131.926 350.367,128.716 350.367,122.95C350.367,120.466 350.93,119.176 352.055,119.083C353.18,118.942 354.141,119.551 354.938,120.911C358.453,127.051 364.125,130.122 371.953,130.122C378.563,130.122 381.867,127.825 381.867,123.231C381.867,121.216 381.117,119.528 379.617,118.169C377.977,116.622 374.789,114.817 370.055,112.755C363.211,109.708 358.641,107.036 356.344,104.739C353.86,102.302 352.617,99.02 352.617,94.895C352.617,89.833 354.563,85.895 358.453,83.083C362.063,80.364 366.891,79.005 372.938,79.005C376.735,79.005 380.203,79.309 383.344,79.919C386.719,80.528 388.477,81.278 388.617,82.169C388.992,84.794 389.766,88.591 390.938,93.559C391.078,94.169 390.422,94.661 388.969,95.036C387.422,95.364 386.391,95.106 385.875,94.262C382.172,88.216 377.485,85.192 371.813,85.192C365.391,85.192 362.18,87.255 362.18,91.38C362.18,93.677 363.047,95.505 364.782,96.864C366.328,98.036 369.961,99.864 375.68,102.348C381.68,104.927 385.758,107.247 387.914,109.309C390.727,111.981 392.133,115.567 392.133,120.067Z" style="fill-rule:nonzero;"/>
            <path id="path2838" d="M473.696,132.723C473.695,134.364 472.594,135.231 470.391,135.325C467.11,135.372 462.821,135.606 457.524,136.028C454.899,136.544 453.024,136.216 451.899,135.044C444.492,127.075 438.211,118.731 433.055,110.012C432.633,109.262 432.094,108.887 431.438,108.887C430.641,108.887 429.258,109.591 427.289,110.997C425.086,112.216 423.985,113.95 423.985,116.2C423.985,117.794 424.032,120.091 424.125,123.091C424.219,126.091 424.969,128.059 426.375,128.997C427.36,129.653 429.633,130.169 433.196,130.544C435.399,130.825 436.5,131.645 436.5,133.005C436.5,134.083 436.324,134.751 435.973,135.008C435.621,135.266 434.696,135.325 433.196,135.184C428.508,134.762 420.586,134.997 409.43,135.887C406.617,136.122 405.094,135.77 404.86,134.833C404.766,134.505 404.719,134.036 404.719,133.426C404.719,131.973 406.149,130.872 409.008,130.122C411.586,129.466 412.875,126.442 412.875,121.051L412.875,59.598C412.875,55.755 412.5,53.083 411.75,51.583C410.719,49.661 408.563,48.161 405.282,47.083C403.735,46.567 402.961,45.841 402.961,44.903C402.961,43.544 404.063,42.489 406.266,41.739C409.781,40.567 413.133,38.95 416.321,36.887C418.899,35.2 420.492,34.356 421.102,34.356C423.024,34.356 423.985,35.575 423.985,38.012C423.985,37.684 423.961,40.005 423.914,44.973C423.867,48.395 423.844,52.989 423.844,58.755L423.985,102.77C423.985,103.989 424.313,104.598 424.969,104.598C425.672,104.598 426.75,103.989 428.203,102.77C432.094,99.723 436.875,95.739 442.547,90.817C443.672,89.645 444.235,88.708 444.235,88.005C444.235,86.739 442.336,85.848 438.539,85.333C436.899,85.145 436.125,84.231 436.219,82.591C436.36,80.95 437.18,80.247 438.68,80.481C442.055,80.95 446.977,81.208 453.446,81.255C457.946,81.302 462.422,81.325 466.875,81.325C468.328,81.372 469.055,82.239 469.055,83.926C469.055,85.52 467.906,86.387 465.61,86.528C462,86.669 458.602,87.489 455.414,88.989C450.961,91.005 446.203,94.544 441.141,99.606C440.766,99.887 440.578,100.239 440.578,100.661C440.578,101.317 441.375,102.887 442.969,105.372C448.828,114.278 454.36,121.005 459.563,125.551C462.891,128.411 466.008,129.841 468.914,129.841C471.071,129.841 472.406,129.993 472.922,130.298C473.438,130.602 473.696,131.411 473.696,132.723L473.696,132.723Z" style="fill-rule:nonzero;"/>
        </g>
        <g id="text2870" transform="matrix(1,0,0,1,0,4)">
            <path id="path2877" d="M285.18,153.23C285.18,153.394 284.866,153.562 284.237,153.735C283.827,153.845 283.481,154.219 283.198,154.857C281.557,158.502 280.09,161.442 278.796,163.675C278.768,163.73 278.7,163.752 278.591,163.743C278.49,163.734 278.422,163.702 278.386,163.648C278.167,163.319 277.606,162.176 276.704,160.216C275.874,158.411 275.428,157.509 275.364,157.509C275.264,157.509 274.776,158.379 273.901,160.12C272.908,162.062 272.32,163.169 272.138,163.443C272.11,163.506 272.046,163.534 271.946,163.525C271.846,163.525 271.768,163.488 271.714,163.415C271.048,162.376 269.517,159.532 267.12,154.884C266.846,154.337 266.541,153.991 266.204,153.845C265.621,153.59 265.329,153.403 265.329,153.284C265.329,152.929 265.525,152.769 265.917,152.806C267.676,152.988 269.216,152.952 270.538,152.696C270.839,152.642 270.989,152.742 270.989,152.997C270.989,153.353 270.784,153.581 270.374,153.681C269.836,153.808 269.567,154.009 269.567,154.282C269.567,154.456 269.631,154.711 269.759,155.048C270.087,155.896 270.579,156.971 271.235,158.275C271.891,159.578 272.274,160.23 272.384,160.23C272.457,160.23 272.844,159.551 273.546,158.193C274.248,156.834 274.598,156.082 274.598,155.937C274.598,155.581 274.48,155.198 274.243,154.788C273.96,154.187 273.632,153.827 273.259,153.708C272.657,153.499 272.356,153.293 272.356,153.093C272.356,152.728 272.561,152.578 272.971,152.642C274.375,152.833 275.861,152.797 277.429,152.532C277.729,152.478 277.88,152.569 277.88,152.806C277.88,153.152 277.656,153.366 277.21,153.448C276.681,153.549 276.417,153.818 276.417,154.255C276.417,154.465 276.476,154.711 276.595,154.993C277.998,158.429 278.809,160.148 279.028,160.148C279.11,160.148 279.475,159.478 280.122,158.138C280.815,156.707 281.298,155.554 281.571,154.679C281.589,154.633 281.598,154.583 281.598,154.528C281.598,154.137 281.293,153.831 280.682,153.612C280.208,153.457 279.971,153.284 279.971,153.093C279.971,152.774 280.122,152.651 280.423,152.724C280.833,152.815 281.571,152.883 282.637,152.929C283.64,152.965 284.301,152.961 284.62,152.915C284.994,152.87 285.18,152.974 285.18,153.23L285.18,153.23Z" style="fill-rule:nonzero;"/>
            <path id="path2879" d="M297.294,160.982C297.294,161.373 296.765,161.861 295.708,162.444C294.505,163.092 293.27,163.415 292.003,163.415C290.626,163.415 289.469,162.964 288.53,162.062C287.527,161.105 287.026,159.829 287.026,158.234C287.026,156.429 287.587,154.98 288.708,153.886C289.756,152.865 291.041,152.355 292.563,152.355C293.466,152.355 294.309,152.642 295.093,153.216C295.794,153.726 296.259,154.31 296.487,154.966C296.569,155.194 296.692,155.321 296.856,155.349C297.093,155.394 297.212,155.554 297.212,155.827C297.212,156.201 296.765,156.52 295.872,156.784L289.569,158.657C289.979,160.827 291.091,161.911 292.905,161.911C293.953,161.911 295.147,161.528 296.487,160.763C296.688,160.644 296.884,160.585 297.075,160.585C297.221,160.585 297.294,160.717 297.294,160.982ZM294.054,155.499C294.054,154.998 293.851,154.558 293.445,154.18C293.04,153.802 292.541,153.612 291.948,153.612C290.271,153.612 289.432,154.82 289.432,157.235L289.432,157.564L293.151,156.442C293.753,156.269 294.054,155.955 294.054,155.499Z" style="fill-rule:nonzero;"/>
            <path id="path2881" d="M311.116,157.14C311.116,158.944 310.487,160.457 309.229,161.679C308.026,162.855 306.595,163.442 304.936,163.442C303.998,163.442 303.018,163.288 301.997,162.978C301.013,162.677 300.516,162.403 300.507,162.157C300.498,161.948 300.502,161.214 300.52,159.956C300.548,158.416 300.561,157.295 300.561,156.593C300.561,155.536 300.552,154.002 300.534,151.992C300.516,149.983 300.507,148.65 300.507,147.993C300.507,147.337 300.406,146.886 300.206,146.64C300.024,146.421 299.627,146.248 299.016,146.12C298.779,146.038 298.661,145.888 298.661,145.669C298.661,145.478 298.839,145.318 299.194,145.191C299.705,145.008 300.338,144.703 301.095,144.275C301.696,143.937 302.07,143.769 302.216,143.769C302.498,143.769 302.639,144.001 302.639,144.466C302.639,144.502 302.626,144.976 302.598,145.888C302.58,146.745 302.576,147.615 302.585,148.499L302.612,153.23C302.612,153.676 302.767,153.804 303.077,153.612C304.171,152.984 305.31,152.669 306.495,152.669C307.862,152.669 308.974,153.081 309.831,153.906C310.688,154.731 311.116,155.809 311.116,157.14L311.116,157.14ZM308.929,158.357C308.929,157.108 308.582,156.082 307.889,155.28C307.233,154.524 306.436,154.146 305.497,154.146C304.85,154.146 304.212,154.314 303.583,154.651C302.954,154.989 302.639,155.344 302.639,155.718L302.639,159.382C302.639,161.141 303.61,162.021 305.552,162.021C306.563,162.021 307.379,161.695 307.999,161.043C308.619,160.391 308.929,159.496 308.929,158.357Z" style="fill-rule:nonzero;"/>
            <path id="path2883" d="M333.237,161.939C333.274,162.021 333.292,162.08 333.292,162.116C333.292,162.308 332.827,162.622 331.897,163.06C330.822,163.561 330.188,163.812 329.997,163.812C329.833,163.812 329.644,163.536 329.43,162.984C329.215,162.433 329.067,162.157 328.985,162.157C328.994,162.157 328.477,162.397 327.433,162.875C326.39,163.354 325.599,163.593 325.061,163.593C323.858,163.593 322.815,163.16 321.93,162.294C320.864,161.264 320.331,159.819 320.331,157.96C320.331,156.401 320.96,155.057 322.218,153.927C323.33,152.933 324.464,152.437 325.622,152.437C326.442,152.437 327.422,152.541 328.561,152.751C328.917,152.815 329.095,152.71 329.095,152.437L329.095,147.761C329.095,147.232 328.967,146.859 328.712,146.64C328.548,146.494 328.16,146.321 327.55,146.12C327.258,146.011 327.112,145.833 327.112,145.587C327.112,145.359 327.308,145.191 327.7,145.081C328.238,144.917 328.88,144.644 329.628,144.261C330.248,143.933 330.63,143.769 330.776,143.769C331.113,143.769 331.282,144.001 331.282,144.466C331.282,144.457 331.268,144.91 331.241,145.826C331.214,146.742 331.2,147.633 331.2,148.499L331.2,160.927C331.2,161.446 331.432,161.706 331.897,161.706C332.07,161.706 332.303,161.679 332.595,161.624C332.914,161.569 333.128,161.674 333.237,161.939L333.237,161.939ZM329.013,160.585L329.013,155.691C329.013,155.29 328.657,154.875 327.946,154.446C327.19,153.991 326.369,153.763 325.485,153.763C323.58,153.763 322.628,154.939 322.628,157.29C322.628,158.548 323.006,159.623 323.763,160.517C324.519,161.41 325.408,161.857 326.429,161.857C326.893,161.857 327.44,161.702 328.069,161.392C328.698,161.082 329.013,160.813 329.013,160.585Z" style="fill-rule:nonzero;"/>
            <path id="path2885" d="M345.091,160.982C345.091,161.373 344.562,161.861 343.505,162.444C342.302,163.092 341.067,163.415 339.8,163.415C338.423,163.415 337.266,162.964 336.327,162.062C335.324,161.105 334.823,159.829 334.823,158.234C334.823,156.429 335.384,154.98 336.505,153.886C337.553,152.865 338.838,152.355 340.36,152.355C341.263,152.355 342.106,152.642 342.889,153.216C343.591,153.726 344.056,154.31 344.284,154.966C344.366,155.194 344.489,155.321 344.653,155.349C344.89,155.394 345.009,155.554 345.009,155.827C345.009,156.201 344.562,156.52 343.669,156.784L337.366,158.657C337.776,160.827 338.888,161.911 340.702,161.911C341.75,161.911 342.944,161.528 344.284,160.763C344.485,160.644 344.68,160.585 344.872,160.585C345.018,160.585 345.091,160.717 345.091,160.982ZM341.85,155.499C341.85,154.998 341.648,154.558 341.242,154.18C340.836,153.802 340.337,153.612 339.745,153.612C338.068,153.612 337.229,154.82 337.229,157.235L337.229,157.564L340.948,156.442C341.55,156.269 341.85,155.955 341.85,155.499Z" style="fill-rule:nonzero;"/>
            <path id="path2887" d="M360.089,153.202C360.089,153.375 359.802,153.553 359.227,153.735C358.854,153.845 358.535,154.219 358.27,154.857C357.824,155.932 357.044,157.509 355.932,159.587C354.994,161.346 354.269,162.631 353.759,163.442C353.731,163.506 353.672,163.534 353.581,163.524C353.49,163.515 353.421,163.479 353.376,163.415C351.443,160.635 349.789,157.791 348.413,154.884C348.121,154.264 347.834,153.918 347.552,153.845C347.023,153.635 346.759,153.448 346.759,153.284C346.759,152.92 346.936,152.76 347.292,152.806C347.848,152.879 348.673,152.897 349.766,152.86C350.824,152.833 351.567,152.778 351.995,152.696C352.259,152.642 352.391,152.742 352.391,152.997C352.391,153.316 352.205,153.521 351.831,153.612C351.12,153.804 350.764,154.05 350.764,154.351C350.764,154.487 350.81,154.683 350.901,154.939C351.211,155.704 351.767,156.809 352.569,158.254C353.371,159.699 353.827,160.421 353.936,160.421C354.018,160.421 354.406,159.728 355.098,158.343C355.828,156.875 356.352,155.691 356.671,154.788C356.716,154.688 356.739,154.588 356.739,154.487C356.739,154.132 356.52,153.84 356.083,153.612C355.654,153.439 355.44,153.275 355.44,153.12C355.44,152.801 355.582,152.669 355.864,152.724C356.229,152.788 356.871,152.842 357.792,152.888C358.712,152.933 359.309,152.942 359.583,152.915C359.92,152.851 360.089,152.947 360.089,153.202L360.089,153.202Z" style="fill-rule:nonzero;"/>
            <path id="path2889" d="M372.216,160.982C372.216,161.373 371.687,161.861 370.63,162.444C369.427,163.092 368.192,163.415 366.925,163.415C365.548,163.415 364.391,162.964 363.452,162.062C362.449,161.105 361.948,159.829 361.948,158.234C361.948,156.429 362.509,154.98 363.63,153.886C364.678,152.865 365.963,152.355 367.485,152.355C368.388,152.355 369.231,152.642 370.014,153.216C370.716,153.726 371.181,154.31 371.409,154.966C371.491,155.194 371.614,155.321 371.778,155.349C372.015,155.394 372.134,155.554 372.134,155.827C372.134,156.201 371.687,156.52 370.794,156.784L364.491,158.657C364.901,160.827 366.013,161.911 367.827,161.911C368.875,161.911 370.069,161.528 371.409,160.763C371.61,160.644 371.805,160.585 371.997,160.585C372.143,160.585 372.216,160.717 372.216,160.982ZM368.975,155.499C368.975,154.998 368.773,154.558 368.367,154.18C367.961,153.802 367.462,153.612 366.87,153.612C365.193,153.612 364.354,154.82 364.354,157.235L364.354,157.564L368.073,156.442C368.675,156.269 368.975,155.955 368.975,155.499Z" style="fill-rule:nonzero;"/>
            <path id="path2891" d="M380.665,162.882C380.665,163.247 380.46,163.406 380.05,163.36C378.792,163.242 377.233,163.26 375.374,163.415C375,163.452 374.77,163.442 374.683,163.388C374.597,163.333 374.554,163.183 374.554,162.937C374.554,162.718 374.802,162.533 375.299,162.383C375.795,162.232 376.044,161.784 376.044,161.036L376.044,148.663C376.044,147.925 375.937,147.383 375.722,147.036C375.508,146.69 375.132,146.421 374.595,146.23C374.312,146.129 374.171,145.988 374.171,145.806C374.171,145.532 374.376,145.327 374.786,145.191C375.406,144.99 376.048,144.68 376.714,144.261C377.261,143.933 377.607,143.769 377.753,143.769C378.09,143.769 378.259,144.001 378.259,144.466C378.259,144.429 378.24,144.885 378.204,145.833C378.177,146.735 378.167,147.624 378.177,148.499L378.231,160.708C378.231,161.264 378.368,161.667 378.641,161.918C378.915,162.169 379.384,162.335 380.05,162.417C380.46,162.463 380.665,162.618 380.665,162.882L380.665,162.882Z" style="fill-rule:nonzero;"/>
            <path id="path2893" d="M393.913,157.769C393.913,159.355 393.325,160.697 392.149,161.795C390.973,162.893 389.515,163.442 387.774,163.442C386.033,163.442 384.657,162.959 383.645,161.993C382.67,161.045 382.182,159.792 382.182,158.234C382.182,156.62 382.798,155.262 384.028,154.159C385.222,153.093 386.649,152.56 388.307,152.56C390.085,152.56 391.47,153.038 392.464,153.995C393.43,154.925 393.913,156.183 393.913,157.769ZM391.507,158.603C391.507,157.172 391.16,156.01 390.468,155.116C389.793,154.25 388.936,153.817 387.897,153.817C386.931,153.817 386.143,154.157 385.532,154.836C384.921,155.515 384.616,156.342 384.616,157.317C384.616,158.885 384.971,160.107 385.682,160.982C386.339,161.784 387.195,162.185 388.253,162.185C389.255,162.185 390.048,161.852 390.632,161.187C391.215,160.521 391.507,159.66 391.507,158.603Z" style="fill-rule:nonzero;"/>
            <path id="path2895" d="M408.2,157.4C408.2,159.104 407.628,160.551 406.484,161.74C405.34,162.93 404.007,163.525 402.485,163.525C401.565,163.525 400.676,163.36 399.819,163.032C399.728,162.996 399.682,163.219 399.682,163.702L399.682,167.817C399.682,168.483 400.225,168.911 401.309,169.103C401.811,169.194 402.127,169.278 402.26,169.356C402.392,169.433 402.458,169.563 402.458,169.745C402.458,170.055 402.253,170.196 401.843,170.169C399.929,170.041 398.247,170.087 396.798,170.306C396.497,170.351 396.31,170.351 396.237,170.306C396.164,170.26 396.128,170.137 396.128,169.937C396.128,169.782 396.388,169.595 396.907,169.376C397.354,169.194 397.577,168.756 397.577,168.064L397.577,156.005C397.577,155.03 397.308,154.419 396.77,154.173C396.132,153.89 395.813,153.658 395.813,153.476C395.813,153.275 396,153.125 396.374,153.025C396.857,152.906 397.354,152.696 397.864,152.396C398.292,152.15 398.552,152.026 398.643,152.026C398.917,152.026 399.14,152.277 399.313,152.778C399.569,153.508 399.737,153.872 399.819,153.872C399.837,153.872 400.229,153.658 400.995,153.23C401.833,152.765 402.654,152.532 403.456,152.532C404.759,152.532 405.835,152.901 406.682,153.64C407.694,154.506 408.2,155.759 408.2,157.4ZM405.876,158.493C405.876,157.008 405.507,155.85 404.768,155.021C404.167,154.328 403.46,153.982 402.649,153.982C402.02,153.982 401.419,154.2 400.845,154.638C400.088,155.203 399.71,155.991 399.71,157.003L399.71,160.872C399.71,161.118 400.056,161.378 400.749,161.651C401.496,161.952 402.307,162.103 403.182,162.103C404.978,162.103 405.876,160.9 405.876,158.493Z" style="fill-rule:nonzero;"/>
            <path id="path2897" d="M432.905,162.909C432.905,163.21 432.764,163.351 432.481,163.333C430.622,163.196 428.89,163.196 427.286,163.333C426.93,163.36 426.753,163.201 426.753,162.855C426.753,162.581 426.994,162.435 427.477,162.417C428.088,162.381 428.393,161.884 428.393,160.927L428.393,157.29C428.393,155.248 427.564,154.228 425.905,154.228C425.03,154.228 424.228,154.387 423.499,154.706C422.833,154.989 422.496,155.271 422.487,155.554L422.432,160.982C422.432,161.547 422.501,161.92 422.637,162.103C422.738,162.23 422.961,162.321 423.307,162.376C424.109,162.513 424.511,162.681 424.511,162.882C424.511,163.055 424.488,163.174 424.442,163.237C424.387,163.329 424.223,163.37 423.95,163.36C422.911,163.324 421.398,163.342 419.411,163.415C419.128,163.424 418.946,163.401 418.864,163.347C418.782,163.292 418.741,163.164 418.741,162.964C418.741,162.727 419.001,162.581 419.52,162.526C420.085,162.463 420.368,161.948 420.368,160.982L420.368,157.263C420.368,156.26 420.14,155.485 419.684,154.939C419.283,154.446 418.773,154.2 418.153,154.2C417.242,154.2 416.421,154.385 415.692,154.754C414.963,155.123 414.598,155.517 414.598,155.937L414.598,160.927C414.598,161.492 414.744,161.884 415.036,162.103C415.3,162.303 415.779,162.426 416.471,162.472C416.845,162.49 417.032,162.618 417.032,162.855C417.032,163.119 416.882,163.251 416.581,163.251C414.302,163.251 412.652,163.315 411.632,163.442C411.285,163.488 411.062,163.488 410.962,163.442C410.88,163.397 410.839,163.288 410.839,163.114C410.839,162.886 411.176,162.691 411.85,162.526C412.261,162.417 412.466,161.884 412.466,160.927L412.466,156.73C412.466,155.663 412.178,155.048 411.604,154.884C411.121,154.747 410.827,154.647 410.722,154.583C410.618,154.519 410.565,154.414 410.565,154.269C410.565,154.105 411.039,153.758 411.987,153.23C412.99,152.664 413.605,152.382 413.833,152.382C414.024,152.382 414.186,152.658 414.318,153.209C414.45,153.761 414.553,154.036 414.626,154.036C414.726,154.036 415.004,153.895 415.46,153.612C416.025,153.257 416.535,152.993 416.991,152.819C417.738,152.528 418.509,152.382 419.302,152.382C419.94,152.382 420.496,152.519 420.969,152.792C421.298,152.974 421.594,153.225 421.858,153.544C422.077,153.817 422.186,153.954 422.186,153.954C422.186,153.954 422.423,153.817 422.897,153.544C423.453,153.225 423.996,152.974 424.524,152.792C425.299,152.519 426.051,152.382 426.78,152.382C429.277,152.382 430.526,153.754 430.526,156.497L430.526,160.927C430.526,161.446 430.649,161.816 430.895,162.034C431.114,162.217 431.542,162.371 432.18,162.499C432.663,162.59 432.905,162.727 432.905,162.909L432.905,162.909Z" style="fill-rule:nonzero;"/>
            <path id="path2899" d="M444.458,160.982C444.458,161.373 443.929,161.861 442.872,162.444C441.669,163.092 440.434,163.415 439.167,163.415C437.791,163.415 436.633,162.964 435.694,162.062C434.692,161.105 434.19,159.829 434.19,158.234C434.19,156.429 434.751,154.98 435.872,153.886C436.92,152.865 438.205,152.355 439.727,152.355C440.63,152.355 441.473,152.642 442.257,153.216C442.958,153.726 443.423,154.31 443.651,154.966C443.733,155.194 443.856,155.321 444.02,155.349C444.257,155.394 444.376,155.554 444.376,155.827C444.376,156.201 443.929,156.52 443.036,156.784L436.733,158.657C437.143,160.827 438.255,161.911 440.069,161.911C441.117,161.911 442.311,161.528 443.651,160.763C443.852,160.644 444.048,160.585 444.239,160.585C444.385,160.585 444.458,160.717 444.458,160.982ZM441.218,155.499C441.218,154.998 441.015,154.558 440.609,154.18C440.204,153.802 439.705,153.612 439.112,153.612C437.435,153.612 436.596,154.82 436.596,157.235L436.596,157.564L440.315,156.442C440.917,156.269 441.218,155.955 441.218,155.499Z" style="fill-rule:nonzero;"/>
            <path id="path2901" d="M460.864,163.032C460.864,163.315 460.659,163.442 460.249,163.415C458.289,163.315 456.804,163.297 455.792,163.36C455.272,163.397 454.99,163.333 454.944,163.169C454.926,163.114 454.917,163.037 454.917,162.937C454.917,162.754 455.181,162.59 455.71,162.444C456.193,162.308 456.434,161.838 456.434,161.036L456.434,157.4C456.434,155.312 455.528,154.269 453.714,154.269C452.903,154.269 452.151,154.46 451.458,154.843C450.802,155.217 450.473,155.604 450.473,156.005L450.473,161.009C450.473,161.866 451.034,162.344 452.155,162.444C452.584,162.481 452.798,162.618 452.798,162.855C452.798,163.082 452.739,163.219 452.62,163.265C452.565,163.283 452.41,163.288 452.155,163.278C450.724,163.224 449.248,163.297 447.725,163.497C447.397,163.543 447.192,163.556 447.11,163.538C446.928,163.502 446.837,163.36 446.837,163.114C446.837,162.896 447.097,162.709 447.616,162.554C448.099,162.408 448.341,161.802 448.341,160.735L448.341,156.593C448.341,155.891 448.249,155.444 448.067,155.253C447.94,155.116 447.516,154.925 446.796,154.679C446.613,154.615 446.522,154.487 446.522,154.296C446.522,154.114 446.709,153.954 447.083,153.817C447.593,153.626 448.154,153.321 448.765,152.901C449.275,152.555 449.603,152.382 449.749,152.382C449.995,152.382 450.159,152.662 450.241,153.223C450.323,153.783 450.437,154.064 450.583,154.064C450.51,154.064 450.975,153.797 451.977,153.264C452.98,152.731 453.969,152.464 454.944,152.464C457.305,152.464 458.494,153.808 458.513,156.497L458.54,160.9C458.54,161.465 458.686,161.87 458.977,162.116C459.196,162.299 459.62,162.454 460.249,162.581C460.659,162.663 460.864,162.814 460.864,163.032L460.864,163.032Z" style="fill-rule:nonzero;"/>
            <path id="path2903" d="M469.641,161.993C469.641,162.431 469.24,162.804 468.438,163.114C467.727,163.388 467.007,163.525 466.278,163.525C464.3,163.525 463.311,162.472 463.311,160.366L463.311,155.417C463.311,154.788 463.261,154.403 463.161,154.262C463.061,154.121 462.728,153.982 462.163,153.845C462.017,153.808 461.944,153.667 461.944,153.421C461.944,153.157 461.999,152.997 462.108,152.942C463.093,152.459 463.949,151.594 464.679,150.345C464.779,150.172 464.975,150.117 465.266,150.181C465.467,150.245 465.572,150.363 465.581,150.536L465.636,152.245C465.636,152.373 465.658,152.464 465.704,152.519C465.768,152.601 465.914,152.642 466.141,152.642L469.19,152.642C469.363,152.642 469.363,152.856 469.19,153.284C468.981,153.804 468.671,154.064 468.261,154.064L466.196,154.064C465.841,154.064 465.622,154.123 465.54,154.241C465.476,154.323 465.444,154.547 465.444,154.911L465.444,159.382C465.444,160.512 465.544,161.228 465.745,161.528C466.009,161.911 466.625,162.103 467.591,162.103C467.91,162.103 468.297,162.05 468.753,161.945C469.209,161.841 469.45,161.788 469.477,161.788C469.587,161.788 469.641,161.857 469.641,161.993L469.641,161.993Z" style="fill-rule:nonzero;"/>
            <path id="path2905" d="M475.848,162.609C475.848,164.978 474.85,166.76 472.854,167.954C472.672,168.064 472.54,168.118 472.458,168.118C472.33,168.118 472.212,167.972 472.102,167.681C472.066,167.581 472.048,167.498 472.048,167.435C472.048,167.28 472.307,167.025 472.827,166.669C473.72,166.049 474.167,165.347 474.167,164.564C474.167,164.163 473.907,163.798 473.387,163.47C472.658,163.014 472.294,162.454 472.294,161.788C472.294,161.342 472.444,160.97 472.745,160.674C473.046,160.378 473.447,160.23 473.948,160.23C474.55,160.23 475.017,160.448 475.349,160.886C475.682,161.323 475.848,161.898 475.848,162.609L475.848,162.609Z" style="fill-rule:nonzero;"/>
            <path id="path2907" d="M278.96,182.969C278.96,184.555 278.372,185.897 277.196,186.995C276.02,188.093 274.562,188.642 272.821,188.642C271.08,188.642 269.704,188.159 268.692,187.193C267.717,186.245 267.229,184.992 267.229,183.433C267.229,181.82 267.845,180.462 269.075,179.359C270.269,178.293 271.695,177.76 273.354,177.76C275.132,177.76 276.517,178.238 277.511,179.195C278.477,180.125 278.96,181.383 278.96,182.969ZM276.554,183.803C276.554,182.372 276.207,181.21 275.514,180.316C274.84,179.45 273.983,179.017 272.944,179.017C271.978,179.017 271.19,179.357 270.579,180.036C269.968,180.715 269.663,181.542 269.663,182.517C269.663,184.085 270.018,185.307 270.729,186.182C271.386,186.984 272.242,187.385 273.3,187.385C274.302,187.385 275.095,187.052 275.679,186.387C276.262,185.721 276.554,184.86 276.554,183.803Z" style="fill-rule:nonzero;"/>
            <path id="path2909" d="M295.598,188.232C295.598,188.515 295.393,188.642 294.983,188.615C293.024,188.515 291.538,188.497 290.526,188.56C290.007,188.597 289.724,188.533 289.679,188.369C289.66,188.314 289.651,188.237 289.651,188.137C289.651,187.954 289.915,187.79 290.444,187.644C290.927,187.508 291.169,187.038 291.169,186.236L291.169,182.6C291.169,180.512 290.262,179.469 288.448,179.469C287.637,179.469 286.885,179.66 286.192,180.043C285.536,180.417 285.208,180.804 285.208,181.205L285.208,186.209C285.208,187.066 285.768,187.544 286.889,187.644C287.318,187.681 287.532,187.818 287.532,188.055C287.532,188.282 287.473,188.419 287.354,188.465C287.3,188.483 287.145,188.488 286.889,188.478C285.458,188.424 283.982,188.497 282.46,188.697C282.132,188.743 281.927,188.756 281.844,188.738C281.662,188.702 281.571,188.56 281.571,188.314C281.571,188.096 281.831,187.909 282.35,187.754C282.833,187.608 283.075,187.002 283.075,185.935L283.075,181.793C283.075,181.091 282.984,180.644 282.802,180.453C282.674,180.316 282.25,180.125 281.53,179.879C281.348,179.815 281.257,179.687 281.257,179.496C281.257,179.314 281.443,179.154 281.817,179.017C282.328,178.826 282.888,178.521 283.499,178.101C284.009,177.755 284.337,177.582 284.483,177.582C284.729,177.582 284.893,177.862 284.975,178.423C285.057,178.983 285.171,179.264 285.317,179.264C285.244,179.264 285.709,178.997 286.712,178.464C287.714,177.931 288.703,177.664 289.678,177.664C292.039,177.664 293.229,179.008 293.247,181.697L293.274,186.1C293.274,186.665 293.42,187.07 293.712,187.316C293.93,187.499 294.354,187.654 294.983,187.781C295.393,187.863 295.598,188.014 295.598,188.232L295.598,188.232Z" style="fill-rule:nonzero;"/>
            <path id="path2911" d="M307.028,186.182C307.028,186.573 306.499,187.061 305.442,187.644C304.239,188.292 303.004,188.615 301.737,188.615C300.361,188.615 299.203,188.164 298.264,187.262C297.262,186.305 296.761,185.029 296.761,183.433C296.761,181.629 297.321,180.18 298.442,179.086C299.49,178.065 300.776,177.555 302.298,177.555C303.2,177.555 304.043,177.842 304.827,178.416C305.529,178.926 305.994,179.51 306.221,180.166C306.303,180.394 306.427,180.521 306.591,180.549C306.828,180.594 306.946,180.754 306.946,181.027C306.946,181.401 306.499,181.72 305.606,181.984L299.304,183.857C299.714,186.027 300.826,187.111 302.639,187.111C303.688,187.111 304.882,186.728 306.221,185.963C306.422,185.844 306.618,185.785 306.809,185.785C306.955,185.785 307.028,185.917 307.028,186.182ZM303.788,180.699C303.788,180.198 303.585,179.758 303.18,179.38C302.774,179.002 302.275,178.812 301.682,178.812C300.005,178.812 299.167,180.02 299.167,182.435L299.167,182.764L302.886,181.642C303.487,181.469 303.788,181.155 303.788,180.699Z" style="fill-rule:nonzero;"/>
            <path id="path2913" d="M328.917,187.139C328.953,187.221 328.972,187.28 328.972,187.316C328.971,187.508 328.507,187.822 327.577,188.26C326.501,188.761 325.868,189.012 325.677,189.012C325.513,189.012 325.323,188.736 325.109,188.184C324.895,187.633 324.747,187.357 324.665,187.357C324.674,187.357 324.157,187.597 323.113,188.075C322.069,188.554 321.279,188.793 320.741,188.793C319.538,188.793 318.494,188.36 317.61,187.494C316.544,186.464 316.011,185.019 316.011,183.16C316.011,181.601 316.639,180.257 317.897,179.127C319.009,178.133 320.144,177.637 321.302,177.637C322.122,177.637 323.102,177.741 324.241,177.951C324.597,178.015 324.774,177.91 324.774,177.637L324.774,172.961C324.774,172.432 324.647,172.059 324.391,171.84C324.227,171.694 323.84,171.521 323.229,171.32C322.938,171.211 322.792,171.033 322.792,170.787C322.792,170.559 322.988,170.391 323.38,170.281C323.917,170.117 324.56,169.844 325.307,169.461C325.927,169.133 326.31,168.969 326.456,168.969C326.793,168.969 326.962,169.201 326.962,169.666C326.962,169.657 326.948,170.11 326.921,171.026C326.893,171.942 326.88,172.833 326.88,173.699L326.88,186.127C326.88,186.646 327.112,186.906 327.577,186.906C327.75,186.906 327.983,186.879 328.274,186.824C328.593,186.769 328.807,186.874 328.917,187.139L328.917,187.139ZM324.692,185.785L324.692,180.891C324.692,180.489 324.337,180.075 323.626,179.646C322.869,179.191 322.049,178.963 321.165,178.963C319.26,178.963 318.307,180.139 318.307,182.49C318.307,183.748 318.686,184.823 319.442,185.717C320.199,186.61 321.087,187.057 322.108,187.057C322.573,187.057 323.12,186.902 323.749,186.592C324.378,186.282 324.692,186.013 324.692,185.785Z" style="fill-rule:nonzero;"/>
            <path id="path2915" d="M339.239,178.785C339.239,179.888 338.92,180.439 338.282,180.439C338.182,180.439 337.849,180.376 337.284,180.248C336.719,180.12 336.304,180.057 336.04,180.057C335.019,180.057 334.509,180.745 334.509,182.121L334.509,186.154C334.509,186.628 334.673,186.965 335.001,187.166C335.192,187.284 335.671,187.444 336.436,187.644C336.846,187.745 337.052,187.9 337.052,188.109C337.052,188.355 337.017,188.503 336.949,188.554C336.881,188.604 336.71,188.615 336.436,188.588C334.431,188.378 332.845,188.369 331.679,188.561C331.314,188.624 331.082,188.624 330.981,188.561C330.899,188.506 330.858,188.346 330.858,188.082C330.858,187.836 331.111,187.64 331.617,187.494C332.123,187.348 332.376,186.911 332.376,186.182L332.376,181.793C332.376,181.219 332.301,180.831 332.15,180.631C332,180.43 331.587,180.161 330.913,179.824L330.831,179.783C330.649,179.692 330.557,179.564 330.557,179.4C330.557,179.218 330.744,179.063 331.118,178.936C331.747,178.717 332.321,178.407 332.841,178.006C333.269,177.669 333.542,177.5 333.661,177.5C333.989,177.5 334.185,177.783 334.249,178.348C334.331,179.068 334.427,179.428 334.536,179.428C334.545,179.428 335.056,179.086 336.067,178.402C336.733,177.956 337.462,177.732 338.255,177.732C338.911,177.732 339.239,178.083 339.239,178.785L339.239,178.785Z" style="fill-rule:nonzero;"/>
            <path id="path2917" d="M352.788,182.969C352.788,184.555 352.2,185.897 351.024,186.995C349.848,188.093 348.39,188.642 346.649,188.642C344.908,188.642 343.532,188.159 342.52,187.193C341.545,186.245 341.057,184.992 341.057,183.433C341.057,181.82 341.673,180.462 342.903,179.359C344.097,178.293 345.524,177.76 347.182,177.76C348.96,177.76 350.345,178.238 351.339,179.195C352.305,180.125 352.788,181.383 352.788,182.969ZM350.382,183.803C350.382,182.372 350.035,181.21 349.343,180.316C348.668,179.45 347.811,179.017 346.772,179.017C345.806,179.017 345.018,179.357 344.407,180.036C343.796,180.715 343.491,181.542 343.491,182.517C343.491,184.085 343.846,185.307 344.557,186.182C345.214,186.984 346.07,187.385 347.128,187.385C348.13,187.385 348.923,187.052 349.507,186.387C350.09,185.721 350.382,184.86 350.382,183.803Z" style="fill-rule:nonzero;"/>
            <path id="path2919" d="M367.075,182.6C367.075,184.304 366.503,185.751 365.359,186.94C364.215,188.13 362.882,188.725 361.36,188.725C360.44,188.725 359.551,188.56 358.694,188.232C358.603,188.196 358.557,188.419 358.557,188.902L358.557,193.017C358.557,193.683 359.1,194.111 360.184,194.303C360.686,194.394 361.002,194.478 361.135,194.556C361.267,194.633 361.333,194.763 361.333,194.945C361.333,195.255 361.128,195.396 360.718,195.369C358.804,195.241 357.122,195.287 355.673,195.506C355.372,195.551 355.185,195.551 355.112,195.506C355.039,195.46 355.003,195.337 355.003,195.137C355.003,194.982 355.263,194.795 355.782,194.576C356.229,194.394 356.452,193.956 356.452,193.264L356.452,181.205C356.452,180.23 356.183,179.619 355.645,179.373C355.007,179.09 354.688,178.858 354.688,178.676C354.688,178.475 354.875,178.325 355.249,178.225C355.732,178.106 356.229,177.896 356.739,177.596C357.167,177.35 357.427,177.226 357.518,177.226C357.792,177.226 358.015,177.477 358.188,177.978C358.444,178.708 358.612,179.072 358.694,179.072C358.712,179.072 359.104,178.858 359.87,178.43C360.708,177.965 361.529,177.732 362.331,177.732C363.634,177.732 364.71,178.101 365.557,178.84C366.569,179.706 367.075,180.959 367.075,182.6ZM364.751,183.693C364.751,182.208 364.382,181.05 363.643,180.221C363.042,179.528 362.335,179.182 361.524,179.182C360.895,179.182 360.294,179.4 359.72,179.838C358.963,180.403 358.585,181.191 358.585,182.203L358.585,186.072C358.585,186.318 358.931,186.578 359.624,186.851C360.371,187.152 361.182,187.303 362.057,187.303C363.853,187.303 364.751,186.1 364.751,183.693Z" style="fill-rule:nonzero;"/>
            <path id="path2921" d="M387.337,187.166C387.337,187.357 386.988,187.647 386.291,188.034C385.594,188.421 385.035,188.615 384.616,188.615C384.261,188.615 383.946,188.442 383.673,188.096C383.399,187.749 383.208,187.576 383.098,187.576C383.016,187.576 382.583,187.763 381.8,188.137C381.016,188.51 380.227,188.697 379.434,188.697C378.687,188.697 378.063,188.478 377.561,188.041C377.014,187.558 376.741,186.902 376.741,186.072C376.741,184.495 378.546,183.365 382.155,182.682C382.775,182.563 383.089,182.312 383.098,181.93L383.126,181.055C383.18,179.56 382.52,178.812 381.143,178.812C380.751,178.812 380.38,179.163 380.029,179.865C379.678,180.567 379.175,180.945 378.518,181C377.771,181.073 377.397,180.758 377.397,180.057C377.397,179.619 377.953,179.109 379.065,178.525C380.232,177.915 381.353,177.609 382.428,177.609C384.279,177.609 385.195,178.489 385.177,180.248L385.122,185.881C385.113,186.473 385.363,186.769 385.874,186.769C385.974,186.769 386.165,186.747 386.448,186.701C386.731,186.655 386.895,186.633 386.94,186.633C387.205,186.633 387.337,186.81 387.337,187.166L387.337,187.166ZM383.126,184.049C383.135,183.821 383.082,183.67 382.969,183.598C382.855,183.525 382.675,183.511 382.429,183.557C380.232,183.949 379.134,184.664 379.134,185.703C379.134,186.751 379.703,187.275 380.843,187.275C381.298,187.275 381.768,187.189 382.251,187.016C382.816,186.815 383.098,186.574 383.098,186.291L383.126,184.049Z" style="fill-rule:nonzero;"/>
            <path id="path2923" d="M396.524,187.193C396.524,187.631 396.123,188.004 395.321,188.314C394.61,188.588 393.89,188.725 393.161,188.725C391.183,188.725 390.194,187.672 390.194,185.566L390.194,180.617C390.194,179.988 390.144,179.603 390.044,179.462C389.943,179.321 389.611,179.182 389.046,179.045C388.9,179.008 388.827,178.867 388.827,178.621C388.827,178.357 388.882,178.197 388.991,178.142C389.975,177.659 390.832,176.794 391.561,175.545C391.662,175.372 391.858,175.317 392.149,175.381C392.35,175.445 392.455,175.563 392.464,175.736L392.518,177.445C392.518,177.573 392.541,177.664 392.587,177.719C392.651,177.801 392.796,177.842 393.024,177.842L396.073,177.842C396.246,177.842 396.246,178.056 396.073,178.484C395.863,179.004 395.554,179.264 395.143,179.264L393.079,179.264C392.723,179.264 392.505,179.323 392.423,179.441C392.359,179.523 392.327,179.747 392.327,180.111L392.327,184.582C392.327,185.712 392.427,186.428 392.628,186.728C392.892,187.111 393.507,187.303 394.474,187.303C394.793,187.303 395.18,187.25 395.636,187.145C396.091,187.041 396.333,186.988 396.36,186.988C396.47,186.988 396.524,187.057 396.524,187.193L396.524,187.193Z" style="fill-rule:nonzero;"/>
            <path id="path2925" d="M416.321,187.166C416.321,187.357 415.972,187.647 415.275,188.034C414.578,188.421 414.02,188.615 413.6,188.615C413.245,188.615 412.93,188.442 412.657,188.096C412.384,187.749 412.192,187.576 412.083,187.576C412.001,187.576 411.568,187.763 410.784,188.137C410,188.51 409.212,188.697 408.419,188.697C407.671,188.697 407.047,188.478 406.546,188.041C405.999,187.558 405.725,186.902 405.725,186.072C405.725,184.495 407.53,183.365 411.139,182.682C411.759,182.563 412.074,182.312 412.083,181.93L412.11,181.055C412.165,179.56 411.504,178.812 410.128,178.812C409.736,178.812 409.364,179.163 409.013,179.865C408.663,180.567 408.159,180.945 407.503,181C406.755,181.073 406.382,180.758 406.382,180.057C406.382,179.619 406.938,179.109 408.05,178.525C409.216,177.915 410.337,177.609 411.413,177.609C413.263,177.609 414.179,178.489 414.161,180.248L414.106,185.881C414.097,186.473 414.348,186.769 414.858,186.769C414.958,186.769 415.15,186.747 415.432,186.701C415.715,186.655 415.879,186.633 415.925,186.633C416.189,186.633 416.321,186.81 416.321,187.166L416.321,187.166ZM412.11,184.049C412.119,183.821 412.067,183.67 411.953,183.598C411.839,183.525 411.659,183.511 411.413,183.557C409.216,183.949 408.118,184.664 408.118,185.703C408.118,186.751 408.688,187.275 409.827,187.275C410.283,187.275 410.752,187.189 411.235,187.016C411.8,186.815 412.083,186.574 412.083,186.291L412.11,184.049Z" style="fill-rule:nonzero;"/>
            <path id="path2927" d="M432.454,187.193C432.454,187.631 432.053,188.004 431.251,188.314C430.54,188.588 429.82,188.725 429.091,188.725C427.113,188.725 426.124,187.672 426.124,185.566L426.124,180.617C426.124,179.988 426.074,179.603 425.973,179.462C425.873,179.321 425.541,179.182 424.975,179.045C424.83,179.008 424.757,178.867 424.757,178.621C424.757,178.357 424.811,178.197 424.921,178.142C425.905,177.659 426.762,176.794 427.491,175.545C427.591,175.372 427.787,175.317 428.079,175.381C428.279,175.445 428.384,175.563 428.393,175.736L428.448,177.445C428.448,177.573 428.471,177.664 428.516,177.719C428.58,177.801 428.726,177.842 428.954,177.842L432.003,177.842C432.176,177.842 432.176,178.056 432.003,178.484C431.793,179.004 431.483,179.264 431.073,179.264L429.009,179.264C428.653,179.264 428.434,179.323 428.352,179.441C428.289,179.523 428.257,179.747 428.257,180.111L428.257,184.582C428.257,185.712 428.357,186.428 428.557,186.728C428.822,187.111 429.437,187.303 430.403,187.303C430.722,187.303 431.11,187.25 431.565,187.145C432.021,187.041 432.263,186.988 432.29,186.988C432.399,186.988 432.454,187.057 432.454,187.193L432.454,187.193Z" style="fill-rule:nonzero;"/>
            <path id="path2929" d="M439.304,172.66C439.304,173.079 439.146,173.469 438.832,173.829C438.517,174.189 438.173,174.369 437.8,174.369C437.371,174.369 437.02,174.241 436.747,173.986C436.473,173.731 436.337,173.398 436.337,172.988C436.337,172.587 436.503,172.213 436.836,171.867C437.168,171.521 437.526,171.348 437.909,171.348C438.839,171.348 439.304,171.785 439.304,172.66ZM440.821,188.137C440.776,188.401 440.666,188.551 440.493,188.588C440.447,188.597 440.229,188.588 439.837,188.56C438.479,188.469 437.143,188.488 435.831,188.615C435.475,188.652 435.252,188.638 435.161,188.574C435.07,188.51 435.024,188.365 435.024,188.137C435.024,187.927 435.266,187.754 435.749,187.617C436.277,187.462 436.542,186.956 436.542,186.1L436.542,182.518C436.542,181.798 436.469,181.292 436.323,181C436.123,180.599 435.708,180.294 435.079,180.084C434.796,179.984 434.655,179.833 434.655,179.633C434.655,179.368 434.86,179.173 435.27,179.045C436.036,178.808 436.715,178.493 437.307,178.102C437.781,177.773 438.073,177.609 438.182,177.609C438.547,177.609 438.725,177.846 438.716,178.32C438.679,180.708 438.661,183.142 438.661,185.621C438.661,186.214 438.748,186.637 438.921,186.893C439.112,187.175 439.477,187.376 440.014,187.494C440.607,187.631 440.876,187.845 440.821,188.137L440.821,188.137Z" style="fill-rule:nonzero;"/>
            <path id="path2931" d="M464.897,188.109C464.897,188.41 464.756,188.551 464.473,188.533C462.614,188.396 460.882,188.396 459.278,188.533C458.923,188.561 458.745,188.401 458.745,188.055C458.745,187.781 458.986,187.635 459.47,187.617C460.08,187.581 460.386,187.084 460.386,186.127L460.386,182.49C460.386,180.448 459.556,179.428 457.897,179.428C457.022,179.428 456.22,179.587 455.491,179.906C454.826,180.189 454.488,180.471 454.479,180.754L454.425,186.182C454.425,186.747 454.493,187.12 454.63,187.303C454.73,187.43 454.953,187.521 455.3,187.576C456.102,187.713 456.503,187.881 456.503,188.082C456.503,188.255 456.48,188.374 456.434,188.437C456.38,188.529 456.216,188.57 455.942,188.56C454.903,188.524 453.39,188.542 451.403,188.615C451.121,188.624 450.938,188.601 450.856,188.547C450.774,188.492 450.733,188.364 450.733,188.164C450.733,187.927 450.993,187.781 451.512,187.726C452.078,187.663 452.36,187.148 452.36,186.182L452.36,182.463C452.36,181.46 452.132,180.685 451.677,180.139C451.275,179.646 450.765,179.4 450.145,179.4C449.234,179.4 448.413,179.585 447.684,179.954C446.955,180.323 446.591,180.717 446.591,181.137L446.591,186.127C446.591,186.692 446.736,187.084 447.028,187.303C447.292,187.503 447.771,187.626 448.464,187.672C448.837,187.69 449.024,187.818 449.024,188.055C449.024,188.319 448.874,188.451 448.573,188.451C446.294,188.451 444.645,188.515 443.624,188.642C443.277,188.688 443.054,188.688 442.954,188.642C442.872,188.597 442.831,188.488 442.831,188.314C442.831,188.086 443.168,187.891 443.843,187.726C444.253,187.617 444.458,187.084 444.458,186.127L444.458,181.93C444.458,180.863 444.171,180.248 443.596,180.084C443.113,179.947 442.819,179.847 442.715,179.783C442.61,179.719 442.557,179.614 442.557,179.469C442.557,179.305 443.031,178.958 443.979,178.43C444.982,177.864 445.597,177.582 445.825,177.582C446.016,177.582 446.178,177.858 446.31,178.409C446.442,178.96 446.545,179.236 446.618,179.236C446.718,179.236 446.996,179.095 447.452,178.812C448.017,178.457 448.527,178.193 448.983,178.019C449.731,177.728 450.501,177.582 451.294,177.582C451.932,177.582 452.488,177.719 452.962,177.992C453.29,178.174 453.586,178.425 453.85,178.744C454.069,179.017 454.178,179.154 454.178,179.154C454.178,179.154 454.415,179.017 454.889,178.744C455.445,178.425 455.988,178.174 456.516,177.992C457.291,177.719 458.043,177.582 458.772,177.582C461.27,177.582 462.518,178.954 462.518,181.697L462.518,186.127C462.518,186.646 462.641,187.016 462.887,187.234C463.106,187.417 463.535,187.571 464.173,187.699C464.656,187.79 464.897,187.927 464.897,188.109L464.897,188.109Z" style="fill-rule:nonzero;"/>
            <path id="path2933" d="M476.45,186.182C476.45,186.573 475.921,187.061 474.864,187.644C473.661,188.292 472.426,188.615 471.159,188.615C469.783,188.615 468.625,188.164 467.686,187.262C466.684,186.305 466.182,185.029 466.182,183.433C466.182,181.629 466.743,180.18 467.864,179.086C468.912,178.065 470.197,177.555 471.72,177.555C472.622,177.555 473.465,177.842 474.249,178.416C474.951,178.926 475.416,179.51 475.643,180.166C475.725,180.394 475.848,180.521 476.013,180.549C476.249,180.594 476.368,180.754 476.368,181.027C476.368,181.401 475.921,181.72 475.028,181.984L468.725,183.857C469.136,186.027 470.248,187.111 472.061,187.111C473.11,187.111 474.304,186.728 475.643,185.963C475.844,185.844 476.04,185.785 476.231,185.785C476.377,185.785 476.45,185.917 476.45,186.182ZM473.21,180.699C473.21,180.198 473.007,179.758 472.601,179.38C472.196,179.002 471.697,178.812 471.104,178.812C469.427,178.812 468.589,180.02 468.589,182.435L468.589,182.764L472.307,181.642C472.909,181.469 473.21,181.155 473.21,180.699Z" style="fill-rule:nonzero;"/>
        </g>
    </g>
</svg>
