<svg xmlns="http://www.w3.org/2000/svg" fill="none" viewBox="0 0 600 600"><path fill="#000" d="M3 8.3a6.7 6.7 0 0 1 8.4-8L156 41.9q2 0 3.7 1l284.9 82q1.7 0 3.3 1l144.5 41.6c5 1.4 6.5 7.7 2.8 11.3L159 598a6.7 6.7 0 0 1-11-3L75.6 302.1l-.2-.9zm123.8 445 31.4 127.1 94.5-91zM224.2 353l-91.5 88 121.9 35zm13.5-1L268 474.7l91.3-87.7zM91.3 309.7 121.8 433l91.4-88zm240.8-61-93 89.7L363 374zm13-3.1 31 125.3 93.2-89.7zm-156.9-38.4L95 296.9l124.2 35.7zm13-3.4L231.6 327l91.5-88.2zM54.8 161.9l31 125.3 93-89.7zm385.8-17.4-91.5 88.2 122 35zm13-3 31 125 92.8-89.3zm-157.4-38.3L205 191l121.3 34.9zm13-3.3 30.4 123.4 91.5-88.2zm-157-38.4-91.5 88.2 122 35zm13.1-3 30.3 123 91.3-88zM19 16.4l30.9 125.2L142.7 52z"/></svg>